<?xml version="1.0" encoding="utf-8"?>
<!-- Generator: Adobe Illustrator 20.0.0, SVG Export Plug-In . SVG Version: 6.00 Build 0)  -->
<svg version="1.1" id="Layer_1" xmlns="http://www.w3.org/2000/svg" xmlns:xlink="http://www.w3.org/1999/xlink" x="0px" y="0px"
	 viewBox="0 0 91.3 80" style="enable-background:new 0 0 91.3 80;" xml:space="preserve">
<style type="text/css">
	.st0{fill:#FFFFFF;}
	.st1{fill:#F79323;}
</style>
<g>
	<g>
		<path class="st0" d="M53.8,36.1"/>
		<path d="M53.8,36.1c0,0-1.1-21.3,22.1-34.5c0,0,13-5.3,10.8,12.8c-1.1,4.7,0.8,8.6,0.8,8.6s3.9,9.8-5.4,13.4
			c0,0,10.8,1.3,7.7,15.4c-3.1,14.1-9.5,15.4-16.2,12.1s-13.5-8.5-14.9-10.6c-0.1-0.2-3.4-3-3.9-5.4c-0.4-2.2-2.2-3.9-2.3-6.7
			C52.5,39.7,52.7,38.1,53.8,36.1z"/>
		<path class="st1" d="M56.8,39.7c0,0,1.8-3.4,4.6-5.9s17.9-8.7,21.3-9.1c2.7-0.6,3.4,0,3.4,0s1.6,7.6-8,9.4
			C78.1,34.1,59.7,36.8,56.8,39.7z"/>
		<path class="st1" d="M56.3,38c0,0-2-15.3,15.3-26.9c7.1-4.8,10.3-0.1,12.8,5c0,0,1.2,2.8,1.2,3.7c0,1-10.9,6.2-15,7.7
			C66.1,29.1,56.5,33.5,56.3,38z"/>
		<path class="st1" d="M56.6,41.1c0,0,6.8-3.5,17.9-3.5c0,0-4.6,2-4.8,2.8c-0.1,0.8,0.3,1.3,1,2.4c0.7,1.2,1.4,1.4,2.2,1.6
			s2.6,0,2.8,0.7c0.2,0.7,0.8,1.4-1.9,1.8c-2.7,0.3-8-1.2-9.6-1.6c-1.6-0.5-5.5-2-7.3-1.5C57,43.7,56.4,42.4,56.6,41.1z"/>
		<path class="st1" d="M71.6,40.7c0,0,0.4,1.3,1,1.8s3.7,0.6,4.3,2.2s0.7,4.9-5.8,3.7c0,0,10.9,9.4,12,9.8c0,0,4.8-4.6,5.1-12.1
			c0.3-7.5-8.1-9.1-10.3-8.6C75.6,37.9,72.2,39.9,71.6,40.7z"/>
		<path class="st1" d="M57.7,44.4L57.6,47l0.8,2.4c0,0,11,13.8,18.4,12.1c0,0,3.4-0.9,4.6-2.4l0,0c0,0-5.6-5.9-8.9-8.4
			c-3.4-2.5-5.3-3.3-8.7-4.3C60.5,45.5,57.7,44.4,57.7,44.4z"/>
		<path class="st0" d="M79.4,62.7c0.6,0.2,0.8,0.8,0.6,1.3c-0.2,0.4-0.8,0.6-1.4,0.4c-0.6-0.2-0.8-0.8-0.6-1.3
			C78.2,62.7,78.9,62.5,79.4,62.7z"/>
		<path class="st0" d="M83,60.1c0.8-0.1,1.5,0.4,1.6,1c0.1,0.6-0.5,1.2-1.3,1.3c-0.8,0.1-1.5-0.4-1.6-1C81.7,60.8,82.2,60.2,83,60.1
			z"/>
		<path class="st0" d="M85.6,56.7c0.4-0.6,1-0.9,1.5-0.6c0.4,0.4,0.4,1.2,0.1,1.8c-0.4,0.6-1,0.9-1.5,0.6
			C85.2,58.2,85.2,57.3,85.6,56.7z"/>
		<path class="st0" d="M87.3,53.5c0-0.4,0.3-0.6,0.6-0.6s0.5,0.3,0.5,0.7c0,0.4-0.3,0.6-0.6,0.6C87.5,54.1,87.3,53.9,87.3,53.5z"/>
		<path class="st0" d="M88.5,49.5c0-0.5,0.3-0.8,0.6-0.8c0.3,0,0.5,0.4,0.5,0.9c0,0.5-0.3,0.8-0.6,0.8
			C88.7,50.3,88.5,49.9,88.5,49.5z"/>
		<path class="st0" d="M70.5,7.8c0.7-0.1,1.4,0.3,1.4,0.9c0.1,0.6-0.5,1.2-1.2,1.2C70.1,10,69.4,9.6,69.3,9
			C69.3,8.4,69.8,7.9,70.5,7.8z"/>
		<path class="st0" d="M74.4,5.2c0.8-0.1,1.4,0.3,1.5,0.8c0.1,0.6-0.5,1.1-1.3,1.2c-0.8,0.1-1.4-0.3-1.5-0.8
			C73,5.8,73.6,5.3,74.4,5.2z"/>
		<path class="st0" d="M78.4,2.6C79.2,2.5,79.9,3,80,3.5c0.1,0.6-0.6,1.2-1.4,1.2C77.8,4.8,77,4.4,77,3.8
			C76.9,3.3,77.5,2.7,78.4,2.6z"/>
		<path class="st0" d="M82.9,3.3c0.6-0.1,1.1,0.3,1.2,0.8s-0.4,0.9-1,1c-0.6,0.1-1.1-0.3-1.2-0.8C81.9,3.8,82.3,3.4,82.9,3.3z"/>
		<path class="st0" d="M80,5.7c1.3-0.2,2.4,0.4,2.5,1.2c0.1,0.8-0.9,1.6-2.2,1.7c-1.3,0.2-2.4-0.4-2.5-1.2C77.8,6.6,78.7,5.9,80,5.7
			z"/>
		<path class="st0" d="M82.1,10c0.2-0.7,0.8-1.1,1.3-0.9c0.5,0.2,0.7,0.8,0.4,1.5c-0.2,0.7-0.8,1.1-1.3,0.9
			C82.1,11.3,81.9,10.6,82.1,10z"/>
		<path class="st0" d="M84.7,13c-0.1-0.4,0.1-0.9,0.5-1c0.4-0.1,0.8,0.2,0.9,0.6c0.1,0.4-0.1,0.9-0.5,1C85.2,13.7,84.8,13.4,84.7,13
			z"/>
		<path class="st0" d="M85.3,9.3c0-0.4,0.1-0.8,0.4-0.8s0.5,0.3,0.6,0.7c0,0.4-0.1,0.8-0.4,0.8C85.6,10,85.3,9.7,85.3,9.3z"/>
		<path class="st0" d="M84.9,6.1c0-0.4,0.2-0.8,0.5-0.9c0.3,0,0.6,0.3,0.6,0.8c0,0.4-0.2,0.8-0.5,0.9C85.2,7,84.9,6.6,84.9,6.1z"/>
	</g>
	<g>
		<path class="st0" d="M45.9,38.9"/>
		<path d="M45.9,38.9c0,0-12.8-17-39.1-12.4c0,0-13.4,4.3-0.1,16.8c3.8,2.9,4.9,7.1,4.9,7.1s3.3,10,12.8,6.8c0,0-7.5,7.9,3.9,16.8
			s17.2,5.8,20.2-1.1c3-6.9,4.9-15.2,4.6-17.7c-0.1-0.3,0.7-4.5-0.5-6.7c-1.1-2-0.9-4.4-2.5-6.6C49.3,40.9,48.1,39.8,45.9,38.9z"/>
		<path class="st1" d="M45.9,43.6c0,0-3.5-1.4-7.3-1.6c-3.8-0.2-19.3,4.9-22.1,6.7c-2.4,1.3-2.6,2.2-2.6,2.2s3.6,6.9,12.2,2.1
			C26.1,52.9,41.9,43.3,45.9,43.6z"/>
		<path class="st1" d="M45.3,42c0,0-8.3-13-29-10.8c-8.5,0.9-8,6.5-6.6,12c0,0,0.9,2.9,1.5,3.6c0.6,0.8,12.4-2.3,16.4-3.7
			C32,41.4,42.2,38.6,45.3,42z"/>
		<path class="st1" d="M47,44.5c0,0-7.5,1.6-16,8.9c0,0,4.8-1.4,5.4-0.9C37,53,37,53.6,37.2,55c0.2,1.3-0.2,2-0.6,2.6
			c-0.4,0.6-2,1.7-1.7,2.4c0.3,0.6,0.3,1.6,2.6,0.2c2.3-1.5,5.4-6,6.3-7.4c0.9-1.4,3-5,4.6-5.8C48.4,46.8,48.1,45.5,47,44.5z"/>
		<path class="st1" d="M35.3,53.9c0,0,0.6,1.2,0.3,2c-0.2,0.8-2.4,2.8-1.9,4.4c0.5,1.5,2.6,4.2,6.8-0.9c0,0-2.4,14.2-2.9,15.2
			c0,0-6.6-0.4-11.6-6c-5-5.6,0.4-12.1,2.4-13.2C30.4,54.3,34.3,53.7,35.3,53.9z"/>
		<path class="st1" d="M48.3,47.8l1.8,1.9l0.9,2.4c0,0,0.4,17.7-6.4,21.1c0,0-3.2,1.5-5.1,1.2l0,0c0,0,0.5-8.1,1.5-12.2
			c1-4.1,2-5.9,3.9-8.9C46.8,50.4,48.3,47.8,48.3,47.8z"/>
		<path class="st0" d="M43.4,75.8c-0.3,0.6-0.1,1.2,0.4,1.4c0.4,0.2,1,0,1.3-0.6c0.3-0.6,0.1-1.2-0.4-1.4S43.7,75.3,43.4,75.8z"/>
		<path class="st0" d="M38.9,76.1c-0.6,0.4-0.9,1.2-0.6,1.8c0.4,0.6,1.2,0.6,1.8,0.2c0.6-0.4,0.9-1.2,0.6-1.8S39.6,75.6,38.9,76.1z"
			/>
		<path class="st0" d="M34.8,75.1c-0.7-0.2-1.4,0-1.5,0.5c-0.1,0.5,0.4,1.2,1.1,1.4c0.7,0.2,1.4,0,1.5-0.5
			C36,76,35.5,75.4,34.8,75.1z"/>
		<path class="st0" d="M31.4,73.8c-0.2-0.3-0.6-0.3-0.9-0.1c-0.2,0.2-0.2,0.6,0.1,0.9c0.2,0.3,0.6,0.3,0.9,0.1
			C31.6,74.4,31.6,74,31.4,73.8z"/>
		<path class="st0" d="M27.9,71.4c-0.3-0.4-0.8-0.5-1-0.2c-0.2,0.2-0.1,0.7,0.2,1c0.3,0.4,0.8,0.5,1,0.2
			C28.3,72.2,28.2,71.8,27.9,71.4z"/>
		<path class="st0" d="M15,27.9c-0.6,0.4-0.8,1.1-0.5,1.6c0.3,0.5,1.1,0.6,1.7,0.2c0.6-0.4,0.8-1.1,0.5-1.6S15.6,27.5,15,27.9z"/>
		<ellipse transform="matrix(0.837 -0.5472 0.5472 0.837 -14.1944 10.7472)" class="st0" cx="10.9" cy="29.2" rx="1.4" ry="1"/>
		<path class="st0" d="M5.7,29c-0.7,0.5-1,1.2-0.7,1.8c0.3,0.5,1.2,0.5,1.9,0.1c0.7-0.5,1-1.2,0.7-1.8C7.2,28.5,6.4,28.5,5.7,29z"/>
		<path class="st0" d="M2.6,32.4c-0.5,0.3-0.7,0.9-0.4,1.3c0.3,0.4,0.9,0.5,1.4,0.2C4.1,33.6,4.3,33,4,32.6
			C3.7,32.2,3.1,32.1,2.6,32.4z"/>
		<path class="st0" d="M6.4,32.4c-1.1,0.7-1.6,1.8-1.2,2.5s1.7,0.6,2.8-0.1s1.6-1.8,1.2-2.5C8.7,31.6,7.5,31.7,6.4,32.4z"/>
		<path class="st0" d="M7.5,37c-0.6-0.4-1.3-0.3-1.6,0.2c-0.2,0.4,0,1.1,0.6,1.4s1.3,0.3,1.6-0.2C8.4,38,8.1,37.3,7.5,37z"/>
		<path class="st0" d="M7.4,41c-0.2-0.4-0.6-0.6-1-0.4c-0.3,0.2-0.4,0.6-0.2,1c0.2,0.4,0.6,0.6,1,0.4C7.5,41.8,7.6,41.4,7.4,41z"/>
		<path class="st0" d="M4.6,38.5c-0.2-0.4-0.6-0.5-0.8-0.4c-0.2,0.2-0.2,0.6,0,0.9c0.2,0.4,0.6,0.5,0.8,0.4
			C4.9,39.3,4.8,38.9,4.6,38.5z"/>
		<path class="st0" d="M2.9,35.9c-0.3-0.4-0.7-0.5-0.9-0.4c-0.2,0.2-0.2,0.6,0,1C2.3,36.9,2.7,37,3,36.9C3.2,36.7,3.2,36.2,2.9,35.9
			z"/>
	</g>
</g>
</svg>
