<?xml version="1.0" encoding="utf-8"?>
<!-- Generator: Adobe Illustrator 20.1.0, SVG Export Plug-In . SVG Version: 6.00 Build 0)  -->
<svg version="1.1" id="Capa_1" xmlns="http://www.w3.org/2000/svg" xmlns:xlink="http://www.w3.org/1999/xlink" x="0px" y="0px"
	 viewBox="0 0 581.3 366.2" style="enable-background:new 0 0 581.3 366.2;" xml:space="preserve">
<style type="text/css">
	.st0{enable-background:new    ;}
	.st1{clip-path:url(#SVGID_2_);}
	.st2{fill:#FAA630;}
	.st3{fill:#FFFFFF;}
	.st4{fill:url(#SVGID_3_);}
	.st5{fill:url(#SVGID_4_);}
	.st6{fill:none;}
	.st7{fill:none;stroke:#000000;stroke-width:0.6443;stroke-miterlimit:10;}
	.st8{fill:#121617;stroke:#FFFFFF;stroke-width:0.3459;stroke-miterlimit:10;}
	.st9{fill:#F79323;}
	.st10{fill:none;stroke:#000000;stroke-width:0.7953;stroke-miterlimit:10;}
	.st11{fill:none;stroke:#000000;stroke-width:2.8607;stroke-miterlimit:10;}
	.st12{stroke:#000000;stroke-width:1.2203;stroke-miterlimit:10;}
	.st13{fill:#FBAC30;}
</style>
<g>
	<g>
		<g class="st0">
			<g>
				<defs>
					<polygon id="SVGID_1_" points="840.3,1797.4 840.3,1726.4 924.2,1727.7 924.2,1796.1 					"/>
				</defs>
				<clipPath id="SVGID_2_">
					<use xlink:href="#SVGID_1_"  style="overflow:visible;"/>
				</clipPath>
				<g class="st1">
					<g>
						<g>
							<g>
								<path class="st2" d="M890.3,1788.6c0,0-0.4-1.7-0.9-4.2s-1.1-5.9-1.6-9.3s-0.8-6.8-0.7-9.3c0.1-2.6,0.6-4.3,1.7-4.3l0,0l0,0
									l0,0l0,0c1.2,0.2,1.9,1.9,2.3,4.5c0.3,2.6,0.3,5.9,0.2,9.3c-0.2,3.4-0.5,6.7-0.7,9.2S890.3,1788.6,890.3,1788.6
									 M891.1,1789.4c0,0,0.9-2.6,2.3-6.5c1.4-3.9,3.4-9.1,5.5-14.3c2.2-5.2,4.5-10.4,6.7-14.3s4.3-6.5,5.9-6.4
									c0.1,0,0.3,0,0.4,0.1c0.1,0,0.3,0.1,0.4,0.2c0.1,0.1,0.2,0.2,0.4,0.3c0.1,0.1,0.2,0.3,0.3,0.5c1.3,2.2,0.6,5.8-1.1,9.9
									c-1.8,4.2-4.7,9-7.7,13.5c-3.1,4.5-6.3,8.8-8.8,12C892.8,1787.4,891.1,1789.4,891.1,1789.4 M893.6,1776.2
									c0,0,0.2-2.3,0.5-5.7c0.3-3.4,0.8-7.9,1.4-12.5c0.6-4.5,1.4-9,2.4-12.4c0.9-3.4,2-5.6,3.2-5.6c0.1,0,0.2,0,0.2,0
									c0.1,0,0.2,0,0.2,0.1c0.1,0,0.2,0.1,0.2,0.2c0.1,0.1,0.2,0.1,0.3,0.2c1.4,1.3,1.5,4.2,1,7.8c-0.5,3.6-1.8,7.9-3.2,12
									s-3,8.1-4.2,11C894.5,1774.3,893.6,1776.2,893.6,1776.2 M905,1735.8c-3.1,0-6,1.5-8.7,4.2s-5.1,6.5-7,10.9
									s-3.4,9.4-4.3,14.5c-0.9,5.1-1.1,10.3-0.5,15c0.5,1,1,2.1,1.5,3.2s0.9,2.1,1.3,3.2c0.4,1.1,0.8,2.2,1.2,3.2
									c0.4,1.1,0.7,2.2,1.1,3.2v0.1v0.1v0.1c0,0,0,0.1-0.1,0.1l0,0l0,0l0,0l0,0c0,0,2.2-1.4,5.5-3.8s7.6-5.9,12-10.1
									c4.3-4.2,8.6-9,11.8-14.2s5.3-10.8,5.3-16.4c0,5.6-2.1,11.2-5.3,16.4c-3.2,5.2-7.5,10.1-11.8,14.2c-4.3,4.2-8.7,7.7-12,10.1
									s-5.5,3.8-5.5,3.8s2.6-2.4,6.3-6.2c3.6-3.8,8.2-9.1,12.2-14.9s7.4-12,8.7-17.9s0.4-11.4-4.3-15.8c-0.6-0.6-1.3-1.1-1.9-1.5
									c-0.6-0.4-1.3-0.8-1.9-1.1c-0.6-0.3-1.2-0.5-1.9-0.6C906.3,1735.9,905.7,1735.8,905,1735.8 M916.5,1732.3L916.5,1732.3
									l0.2,0.2l0.1,0.1l0.1,0.1l-0.1-0.1l-0.1-0.1L916.5,1732.3C916.6,1732.4,916.6,1732.4,916.5,1732.3 M905.8,1727.4
									c-3.5,0-7,1.6-10.2,4.2s-6.1,6.3-8.5,10.7c-2.4,4.4-4.3,9.5-5.4,14.8c-1.1,5.3-1.5,10.9-0.9,16.4l0,0
									c-0.6-5.4-0.2-11,0.9-16.4c1.1-5.3,3-10.4,5.4-14.8s5.3-8.1,8.5-10.7S902.3,1727.5,905.8,1727.4 M906.2,1727.4L906.2,1727.4
									L906.2,1727.4L906.2,1727.4L906.2,1727.4L906.2,1727.4L906.2,1727.4L906.2,1727.4L906.2,1727.4"/>
								<path class="st2" d="M841.6,1768.6L841.6,1768.6v0.2v0.1v0.1v-0.1v-0.1V1768.6L841.6,1768.6 M884.5,1793.6
									c0,0-2.7-0.5-6.5-1.4c-3.9-0.9-9-2.2-14-3.7s-9.7-3.2-12.9-5c-3.1-1.8-4.5-3.6-2.8-5.3c0.2-0.2,0.5-0.4,0.7-0.6
									c0.3-0.2,0.6-0.3,0.9-0.4c0.3-0.1,0.6-0.2,1-0.2c0.3,0,0.7-0.1,1.1-0.1c2.6,0,5.9,1,9.5,2.6c3.5,1.6,7.3,3.7,10.7,5.7
									c3.4,2.1,6.5,4.2,8.7,5.7C883.1,1792.6,884.5,1793.6,884.5,1793.6 M886.7,1793.1c0,0-1.5-1-3.7-2.6s-5-3.7-7.8-6
									s-5.4-4.7-7.1-6.8c-1.7-2.1-2.5-4-1.5-5.1c0.1-0.1,0.2-0.2,0.3-0.2c0.1-0.1,0.2-0.1,0.3-0.2c0.1,0,0.2-0.1,0.3-0.1
									s0.2,0,0.3,0c1.3,0,3.2,1.3,5.2,3.3s4.2,4.6,6.2,7.2s3.9,5.2,5.2,7.2C885.8,1791.8,886.7,1793.1,886.7,1793.1 M865.6,1778.3
									c0,0-1-0.3-2.4-0.7c-1.4-0.5-3.2-1.2-4.8-2.1s-3.1-2-3.9-3.2c-0.8-1.2-0.8-2.6,0.5-4.1c0.1-0.1,0.2-0.2,0.3-0.3
									c0.1-0.1,0.2-0.1,0.3-0.2s0.2-0.1,0.3-0.1s0.2,0,0.4,0c0.9,0,1.9,0.7,2.9,1.7s2.1,2.4,3,3.7c0.9,1.4,1.8,2.7,2.3,3.7
									C865.3,1777.6,865.6,1778.3,865.6,1778.3 M856.9,1760.8c-0.9,0-1.7,0.1-2.5,0.4s-1.6,0.7-2.4,1.3c-0.8,0.6-1.5,1.3-2.2,2.3
									c-0.7,0.9-1.4,2.1-2,3.4c-3,6.4-2.8,11.3-0.6,15.1c2.2,3.7,6.4,6.3,11.4,8.1c4.9,1.8,10.6,2.7,15.7,3.2
									c5.1,0.5,9.7,0.5,12.5,0.5c0.1,0,0.2,0,0.4,0c0.1,0,0.2,0,0.3,0s0.2,0,0.3,0s0.2,0,0.3,0c-0.6,0.3-1.3,0.5-2.1,0.7
									s-1.8,0.4-2.9,0.6c-1.1,0.2-2.3,0.3-3.5,0.4c-1.3,0.1-2.6,0.2-4,0.2c-0.9,0-1.7,0-2.6,0c-0.9,0-1.8-0.1-2.7-0.1
									c-0.9-0.1-1.8-0.1-2.8-0.2c-0.9-0.1-1.9-0.2-2.8-0.4c0.9,0.1,1.9,0.3,2.8,0.4s1.9,0.2,2.8,0.2c0.9,0.1,1.8,0.1,2.7,0.1
									s1.8,0,2.6,0c1.8,0,3.4-0.1,5-0.3c1.5-0.1,2.9-0.4,4.1-0.6c1.2-0.2,2.2-0.5,3-0.8s1.4-0.6,1.7-1c0-0.1-0.1-0.1-0.1-0.2
									s-0.1-0.1-0.1-0.2s-0.1-0.2-0.1-0.3c-0.1-0.1-0.1-0.2-0.2-0.3c-0.5-0.6-1-1.2-1.5-1.9c-0.5-0.6-0.9-1.3-1.3-2
									c-0.4-0.7-0.8-1.4-1.2-2.1s-0.7-1.4-1-2.1c-1.7-2.5-3.6-5.3-5.7-8c-2.1-2.7-4.4-5.5-6.8-7.9c-2.4-2.4-4.8-4.5-7.2-6
									C861.6,1761.7,859.2,1760.8,856.9,1760.8"/>
								<path d="M889.5,1793.9L889.5,1793.9L889.5,1793.9L889.5,1793.9L889.5,1793.9C889.5,1794,889.5,1794,889.5,1793.9
									C889.5,1794,889.6,1794,889.5,1793.9C889.6,1794,889.6,1794,889.5,1793.9C889.6,1794,889.6,1794,889.5,1793.9
									C889.6,1794,889.6,1794,889.5,1793.9C889.6,1794,889.6,1794,889.5,1793.9C889.6,1794,889.5,1794,889.5,1793.9
									C889.5,1794,889.5,1793.9,889.5,1793.9 M883.8,1785.1c0.3,0.7,0.7,1.4,1,2.1c0.4,0.7,0.8,1.4,1.2,2.1s0.9,1.3,1.3,2
									c0.5,0.6,1,1.3,1.5,1.9c-0.3-0.4-0.6-0.9-0.9-1.5c-0.3-0.6-0.7-1.2-1.2-1.9c-0.4-0.7-0.9-1.4-1.4-2.2
									C884.9,1786.8,884.3,1785.9,883.8,1785.1 M906.2,1727.4C906.1,1727.4,906.1,1727.4,906.2,1727.4c-0.1,0-0.1,0-0.2,0h-0.1
									h-0.1c-3.5,0-7,1.6-10.2,4.2s-6.1,6.3-8.5,10.7c-2.4,4.4-4.3,9.5-5.4,14.8c-1.1,5.3-1.5,10.9-0.9,16.4
									c0.3,0.6,0.7,1.1,1,1.7s0.6,1.2,1,1.7c0.3,0.6,0.6,1.2,0.9,1.8c0.3,0.6,0.6,1.2,0.9,1.8c-0.6-4.7-0.3-9.9,0.5-15
									c0.9-5.1,2.4-10.1,4.3-14.5c1.9-4.4,4.3-8.2,7-10.9c2.7-2.7,5.6-4.3,8.7-4.2c0.6,0,1.2,0.1,1.9,0.2c0.6,0.1,1.2,0.3,1.9,0.6
									c0.6,0.3,1.3,0.6,1.9,1.1c0.6,0.4,1.3,0.9,1.9,1.5c4.6,4.3,5.5,9.9,4.3,15.8c-1.3,5.9-4.7,12.2-8.7,17.9
									c-4,5.8-8.6,11-12.2,14.9c-3.6,3.8-6.3,6.2-6.3,6.2s2.2-1.4,5.5-3.8s7.6-5.9,12-10.1c4.3-4.2,8.6-9,11.8-14.2
									s5.3-10.8,5.3-16.4c0-1.4-0.1-2.7-0.4-4.1c-0.3-1.4-0.7-2.8-1.2-4.1c-0.6-1.4-1.3-2.7-2.2-4.1s-2-2.7-3.2-4.1c0,0,0,0,0-0.1
									c0,0,0,0,0-0.1c0,0,0,0,0-0.1c0,0,0,0,0-0.1l-0.1-0.1l-0.1-0.1l-0.1-0.1l-0.1-0.1c-0.8-0.8-1.7-1.5-2.5-2.2
									c-0.9-0.6-1.7-1.1-2.6-1.5c-0.9-0.4-1.7-0.7-2.6-0.9C908,1727.6,907.1,1727.4,906.2,1727.4L906.2,1727.4L906.2,1727.4
									L906.2,1727.4L906.2,1727.4"/>
								<path d="M856.4,1752.8c-1.5,0-2.9,0.3-4.3,0.9c-1.4,0.6-2.7,1.5-4,2.8s-2.5,2.9-3.6,4.9s-2.1,4.4-3,7.3v0.1v0.1v0.1v0.1
									c-1.3,4.4-1.5,8.2-0.6,11.4c0.8,3.2,2.5,5.8,4.9,8c2.3,2.1,5.3,3.8,8.6,5.1c3.3,1.2,6.8,2.1,10.4,2.6
									c0.9,0.1,1.9,0.3,2.8,0.4c0.9,0.1,1.9,0.2,2.8,0.2c0.9,0.1,1.8,0.1,2.7,0.1s1.8,0,2.6,0c1.4,0,2.7-0.1,4-0.2
									s2.4-0.2,3.5-0.4c1.1-0.2,2-0.4,2.9-0.6c0.8-0.2,1.6-0.5,2.1-0.7c-0.1,0-0.2,0-0.3,0s-0.2,0-0.3,0s-0.2,0-0.3,0
									s-0.2,0-0.4,0c-2.8,0-7.4,0-12.5-0.5s-10.8-1.4-15.7-3.2c-4.9-1.8-9.2-4.3-11.4-8.1c-2.2-3.7-2.5-8.7,0.6-15.1
									c0.6-1.3,1.3-2.4,2-3.4c0.7-0.9,1.4-1.7,2.2-2.3c0.8-0.6,1.6-1,2.4-1.3c0.8-0.3,1.7-0.4,2.5-0.4c2.3,0,4.7,0.9,7.1,2.4
									c2.4,1.5,4.9,3.6,7.2,6c2.4,2.4,4.7,5.1,6.8,7.9c2.1,2.7,4.1,5.5,5.7,8c0.6,0.9,1.1,1.7,1.6,2.5s1,1.5,1.4,2.2
									s0.8,1.3,1.2,1.9c0.3,0.6,0.6,1.1,0.9,1.5c0.1,0.1,0.1,0.2,0.2,0.3c0.1,0.1,0.1,0.2,0.1,0.3c0,0.1,0.1,0.2,0.1,0.2
									c0,0.1,0.1,0.1,0.1,0.2l0,0l0,0l0,0l0,0l0,0l0,0l0,0l0,0l0,0l0,0l0,0l0,0c0,0,0-0.1,0.1-0.1v-0.1v-0.1v-0.1
									c-0.3-1.1-0.7-2.2-1.1-3.2c-0.4-1.1-0.8-2.2-1.2-3.2c-0.4-1.1-0.9-2.1-1.3-3.2c-0.5-1.1-1-2.1-1.5-3.2
									c-0.3-0.6-0.6-1.2-0.9-1.8c-0.3-0.6-0.6-1.2-0.9-1.8c-0.3-0.6-0.6-1.2-1-1.7c-0.3-0.6-0.7-1.1-1-1.7l0,0
									c-1.8-2.9-3.6-5.7-5.6-8.2s-4-4.7-6.1-6.6s-4.2-3.4-6.3-4.4C860.6,1753.3,858.5,1752.8,856.4,1752.8"/>
								<path d="M909.4,1758c-0.3,0-0.6-0.1-0.8-0.2c-0.3-0.1-0.5-0.3-0.7-0.5s-0.4-0.5-0.5-0.7c-0.1-0.3-0.2-0.6-0.3-1s0-0.8,0-1.1
									c0.1-0.4,0.2-0.7,0.4-1s0.4-0.5,0.7-0.7s0.6-0.3,0.9-0.4h0.1h0.1h0.1h0.1c0.3,0,0.6,0.1,0.8,0.2c0.3,0.1,0.5,0.3,0.7,0.5
									s0.4,0.5,0.5,0.7c0.1,0.3,0.2,0.6,0.3,1s0,0.8,0,1.1c-0.1,0.4-0.2,0.7-0.4,1s-0.4,0.5-0.7,0.7s-0.6,0.3-0.9,0.4h-0.1h-0.1
									C909.6,1757.9,909.6,1758,909.4,1758C909.5,1758,909.5,1758,909.4,1758 M911.5,1747.8c-1.6,0-3.7,2.6-5.9,6.4
									c-2.2,3.9-4.6,9.1-6.7,14.3c-2.2,5.2-4.1,10.4-5.5,14.3s-2.3,6.5-2.3,6.5s1.7-2,4.2-5.2s5.7-7.4,8.8-12
									c3.1-4.5,6-9.3,7.7-13.5c1.8-4.2,2.5-7.8,1.1-9.9c-0.1-0.2-0.2-0.3-0.3-0.5c-0.1-0.1-0.2-0.2-0.4-0.3
									c-0.1-0.1-0.3-0.1-0.4-0.2C911.8,1747.8,911.6,1747.8,911.5,1747.8"/>
								<path d="M889.4,1767.1c-0.2,0-0.3,0-0.5-0.1s-0.3-0.2-0.4-0.3s-0.2-0.3-0.3-0.4c-0.1-0.2-0.1-0.4-0.2-0.6c0-0.2,0-0.5,0-0.7
									s0.1-0.4,0.2-0.6c0.1-0.2,0.2-0.3,0.4-0.4s0.3-0.2,0.5-0.2c0,0,0,0,0.1,0c0,0,0,0,0.1,0c0,0,0,0,0.1,0c0,0,0,0,0.1,0
									c0.2,0,0.3,0,0.5,0.1s0.3,0.2,0.4,0.3c0.1,0.1,0.2,0.3,0.3,0.4c0.1,0.2,0.1,0.4,0.2,0.6c0,0.2,0,0.4,0,0.7
									c0,0.2-0.1,0.4-0.2,0.6c-0.1,0.2-0.2,0.3-0.4,0.4s-0.3,0.2-0.5,0.2c0,0,0,0-0.1,0c0,0,0,0-0.1,0S889.4,1767.1,889.4,1767.1
									L889.4,1767.1 M888.9,1761.5c-1.2,0-1.6,1.7-1.7,4.3c-0.1,2.6,0.2,6,0.7,9.3c0.5,3.4,1.1,6.8,1.6,9.3s0.9,4.2,0.9,4.2
									s0.2-1.7,0.5-4.2s0.6-5.8,0.7-9.2c0.2-3.4,0.2-6.7-0.2-9.3c-0.3-2.6-1-4.4-2.3-4.5l0,0C889,1761.5,889,1761.5,888.9,1761.5
									L888.9,1761.5L888.9,1761.5"/>
								<path d="M900.6,1748.6c-0.2,0-0.4,0-0.6-0.1c-0.2-0.1-0.4-0.2-0.6-0.4c-0.2-0.2-0.3-0.4-0.4-0.6c-0.1-0.2-0.2-0.5-0.2-0.7
									c0-0.3,0-0.6,0-0.9c0.1-0.3,0.2-0.5,0.3-0.8c0.1-0.2,0.3-0.4,0.5-0.6s0.4-0.3,0.7-0.3h0.1h0.1h0.1h0.1c0.2,0,0.4,0,0.6,0.1
									c0.2,0.1,0.4,0.2,0.6,0.4c0.2,0.2,0.3,0.4,0.4,0.6c0.1,0.2,0.2,0.5,0.2,0.7c0,0.3,0,0.6,0,0.9c-0.1,0.3-0.2,0.5-0.3,0.8
									c-0.1,0.2-0.3,0.4-0.5,0.6c-0.2,0.1-0.4,0.3-0.7,0.3h-0.1h-0.1C900.8,1748.6,900.7,1748.6,900.6,1748.6
									C900.7,1748.6,900.7,1748.6,900.6,1748.6 M901.1,1740c-1.2,0-2.3,2.2-3.2,5.6s-1.7,7.9-2.4,12.4c-0.6,4.5-1.1,9.1-1.4,12.5
									c-0.3,3.4-0.5,5.7-0.5,5.7s0.9-1.9,2.1-4.8c1.2-2.9,2.8-6.9,4.2-11s2.6-8.4,3.2-12c0.5-3.6,0.4-6.5-1-7.8
									c-0.1-0.1-0.2-0.2-0.3-0.2c-0.1-0.1-0.2-0.1-0.2-0.2c-0.1,0-0.2-0.1-0.2-0.1C901.2,1740,901.2,1740,901.1,1740"/>
								<path d="M870.1,1778c-0.2,0-0.4,0-0.6-0.1c-0.2-0.1-0.3-0.2-0.5-0.3c-0.1-0.1-0.3-0.3-0.4-0.5c-0.1-0.2-0.2-0.4-0.2-0.6
									c0-0.3,0-0.5,0-0.7c0.1-0.2,0.1-0.5,0.3-0.7c0.1-0.2,0.3-0.4,0.5-0.5s0.4-0.2,0.6-0.3c0,0,0,0,0.1,0c0,0,0,0,0.1,0
									c0,0,0,0,0.1,0c0,0,0,0,0.1,0c0.2,0,0.4,0,0.6,0.1c0.2,0.1,0.3,0.2,0.5,0.3c0.1,0.1,0.3,0.3,0.4,0.5
									c0.1,0.2,0.2,0.4,0.2,0.6c0,0.3,0,0.5,0,0.7s-0.1,0.5-0.3,0.7c-0.1,0.2-0.3,0.4-0.5,0.5s-0.4,0.2-0.6,0.3c0,0,0,0-0.1,0
									c0,0,0,0-0.1,0C870.2,1778,870.2,1778,870.1,1778L870.1,1778 M867.8,1772.2c-0.1,0-0.2,0-0.3,0s-0.2,0.1-0.3,0.1
									s-0.2,0.1-0.3,0.2s-0.2,0.1-0.3,0.2c-1,1.1-0.2,2.9,1.5,5.1c1.7,2.1,4.3,4.6,7.1,6.8c2.8,2.3,5.6,4.4,7.8,6s3.7,2.6,3.7,2.6
									s-0.8-1.3-2.2-3.3c-1.3-2-3.2-4.6-5.2-7.2s-4.2-5.2-6.2-7.2C871,1773.5,869.2,1772.2,867.8,1772.2"/>
								<path d="M853.6,1782.9c-0.2,0-0.5,0-0.7-0.1s-0.4-0.2-0.6-0.4c-0.2-0.2-0.3-0.4-0.5-0.6c-0.1-0.2-0.2-0.5-0.2-0.8
									s0-0.6,0-0.9c0.1-0.3,0.2-0.6,0.3-0.8c0.2-0.2,0.3-0.5,0.6-0.6c0.2-0.2,0.5-0.3,0.8-0.3h0.1h0.1h0.1h0.1
									c0.2,0,0.5,0,0.7,0.1s0.4,0.2,0.6,0.4c0.2,0.2,0.3,0.4,0.5,0.6c0.1,0.2,0.2,0.5,0.2,0.8s0,0.6,0,0.9
									c-0.1,0.3-0.2,0.6-0.3,0.8c-0.2,0.2-0.3,0.5-0.6,0.6c-0.2,0.2-0.5,0.3-0.8,0.3h-0.1h-0.1
									C853.8,1782.9,853.8,1782.9,853.6,1782.9C853.7,1782.9,853.7,1782.9,853.6,1782.9 M852,1777c-0.4,0-0.8,0-1.1,0.1
									s-0.7,0.1-1,0.2s-0.6,0.2-0.9,0.4c-0.3,0.2-0.5,0.3-0.7,0.6c-1.7,1.7-0.3,3.5,2.8,5.3s7.9,3.5,12.9,5s10.1,2.8,14,3.7
									c3.9,0.9,6.5,1.4,6.5,1.4s-1.4-1-3.6-2.6c-2.2-1.6-5.3-3.6-8.7-5.7s-7.2-4.2-10.7-5.7C858,1778,854.6,1777,852,1777"/>
								<path d="M857.2,1772.9c-0.2,0-0.4,0-0.6-0.1c-0.2-0.1-0.3-0.2-0.5-0.3c-0.1-0.1-0.3-0.3-0.4-0.5c-0.1-0.2-0.2-0.4-0.2-0.6
									c0-0.3,0-0.5,0-0.8c0-0.2,0.1-0.5,0.3-0.7c0.1-0.2,0.3-0.4,0.5-0.5s0.4-0.2,0.6-0.3c0,0,0,0,0.1,0c0,0,0,0,0.1,0
									c0,0,0,0,0.1,0c0,0,0,0,0.1,0c0.2,0,0.4,0,0.6,0.1c0.2,0.1,0.3,0.2,0.5,0.3c0.1,0.1,0.3,0.3,0.4,0.5
									c0.1,0.2,0.2,0.4,0.2,0.6c0,0.3,0,0.5,0,0.8c0,0.2-0.1,0.5-0.3,0.7c-0.1,0.2-0.3,0.4-0.5,0.5s-0.4,0.2-0.6,0.3
									c0,0,0,0-0.1,0c0,0,0,0-0.1,0S857.3,1772.9,857.2,1772.9L857.2,1772.9 M856.4,1767.5c-0.1,0-0.2,0-0.4,0
									c-0.1,0-0.2,0.1-0.3,0.1c-0.1,0.1-0.2,0.1-0.3,0.2s-0.2,0.2-0.3,0.3c-1.3,1.5-1.3,2.9-0.5,4.1s2.2,2.3,3.9,3.2
									c1.6,0.9,3.4,1.6,4.8,2.1c1.4,0.5,2.4,0.7,2.4,0.7s-0.4-0.7-0.9-1.7c-0.6-1-1.4-2.4-2.3-3.7c-0.9-1.4-2-2.7-3-3.7
									C858.3,1768.1,857.3,1767.5,856.4,1767.5"/>
								<path class="st3" d="M909.4,1752.3L909.4,1752.3h-0.2h-0.1H909c-0.3,0.1-0.6,0.2-0.9,0.4c-0.3,0.2-0.5,0.4-0.7,0.7
									c-0.2,0.3-0.3,0.6-0.4,1c-0.1,0.4-0.1,0.7,0,1.1c0.1,0.3,0.2,0.7,0.3,1s0.3,0.5,0.5,0.7s0.5,0.4,0.7,0.5
									c0.3,0.1,0.5,0.2,0.8,0.2h0.1h0.1h0.1h0.1c0.3-0.1,0.6-0.2,0.9-0.4c0.3-0.2,0.5-0.5,0.7-0.7s0.3-0.6,0.4-1
									c0.1-0.4,0.1-0.7,0-1.1c0-0.3-0.2-0.7-0.3-1s-0.3-0.5-0.5-0.7s-0.5-0.4-0.7-0.5S909.7,1752.3,909.4,1752.3"/>
								<path class="st3" d="M853.6,1778.2L853.6,1778.2c-0.1,0-0.1,0-0.2,0h-0.1h-0.1c-0.3,0.1-0.5,0.2-0.8,0.3
									c-0.2,0.2-0.4,0.4-0.6,0.6c-0.2,0.2-0.3,0.5-0.3,0.8c-0.1,0.3-0.1,0.6,0,0.9c0,0.3,0.1,0.5,0.2,0.8c0.1,0.2,0.3,0.4,0.5,0.6
									s0.4,0.3,0.6,0.4c0.2,0.1,0.5,0.1,0.7,0.1h0.1h0.1h0.1h0.1c0.3-0.1,0.5-0.2,0.8-0.3c0.2-0.2,0.4-0.4,0.6-0.6
									c0.2-0.2,0.3-0.5,0.3-0.8c0.1-0.3,0.1-0.6,0-0.9c0-0.3-0.1-0.6-0.2-0.8c-0.1-0.2-0.3-0.4-0.5-0.6s-0.4-0.3-0.6-0.4
									C854.1,1778.3,853.9,1778.2,853.6,1778.2"/>
								<path class="st3" d="M900.6,1744.3L900.6,1744.3c-0.1,0-0.1,0-0.2,0h-0.1h-0.1c-0.3,0-0.5,0.2-0.7,0.3s-0.4,0.3-0.5,0.6
									c-0.1,0.2-0.2,0.5-0.3,0.8s-0.1,0.6,0,0.9c0,0.3,0.1,0.5,0.2,0.7c0.1,0.2,0.3,0.4,0.4,0.6c0.2,0.2,0.4,0.3,0.6,0.4
									c0.2,0.1,0.4,0.1,0.6,0.1h0.1h0.1h0.1h0.1c0.3,0,0.5-0.2,0.7-0.3c0.2-0.2,0.4-0.3,0.5-0.6c0.1-0.2,0.2-0.5,0.3-0.8
									s0.1-0.6,0-0.9c0-0.3-0.1-0.5-0.2-0.7c-0.1-0.2-0.2-0.4-0.4-0.6s-0.3-0.3-0.6-0.4C901.1,1744.3,900.9,1744.3,900.6,1744.3"
									/>
								<path class="st3" d="M857.2,1769.1L857.2,1769.1C857.1,1769.1,857.1,1769.1,857.2,1769.1c-0.1,0-0.1,0-0.2,0c0,0,0,0-0.1,0
									c-0.2,0-0.4,0.1-0.6,0.3c-0.2,0.1-0.3,0.3-0.5,0.5c-0.1,0.2-0.2,0.4-0.3,0.7c0,0.2-0.1,0.5,0,0.8c0,0.2,0.1,0.4,0.2,0.6
									c0.1,0.2,0.2,0.4,0.4,0.5c0.1,0.1,0.3,0.2,0.5,0.3c0.2,0.1,0.4,0.1,0.6,0.1c0,0,0,0,0.1,0c0,0,0,0,0.1,0c0,0,0,0,0.1,0
									c0,0,0,0,0.1,0c0.2,0,0.4-0.1,0.6-0.3c0.2-0.1,0.3-0.3,0.5-0.5c0.1-0.2,0.2-0.4,0.3-0.7c0-0.2,0.1-0.5,0-0.8
									c0-0.2-0.1-0.4-0.2-0.6c-0.1-0.2-0.2-0.4-0.4-0.5c-0.1-0.1-0.3-0.2-0.5-0.3C857.6,1769.1,857.4,1769.1,857.2,1769.1"/>
								<path class="st3" d="M870.1,1774.3L870.1,1774.3C870,1774.3,870,1774.3,870.1,1774.3c-0.1,0-0.1,0-0.2,0c0,0,0,0-0.1,0
									c-0.2,0-0.4,0.1-0.6,0.3c-0.2,0.1-0.3,0.3-0.5,0.5c-0.1,0.2-0.2,0.4-0.3,0.7c0,0.2-0.1,0.5,0,0.7c0,0.2,0.1,0.4,0.2,0.6
									c0.1,0.2,0.2,0.4,0.4,0.5c0.1,0.1,0.3,0.2,0.5,0.3c0.2,0.1,0.4,0.1,0.6,0.1c0,0,0,0,0.1,0c0,0,0,0,0.1,0c0,0,0,0,0.1,0
									c0,0,0,0,0.1,0c0.2,0,0.4-0.1,0.6-0.3c0.2-0.1,0.3-0.3,0.5-0.5c0.1-0.2,0.2-0.4,0.3-0.7c0-0.2,0.1-0.5,0-0.7
									c0-0.2-0.1-0.4-0.2-0.6c-0.1-0.2-0.2-0.4-0.4-0.5c-0.1-0.1-0.3-0.2-0.5-0.3C870.5,1774.3,870.3,1774.3,870.1,1774.3"/>
								<path class="st3" d="M889.4,1763.8C889.3,1763.8,889.3,1763.8,889.4,1763.8C889.3,1763.8,889.3,1763.8,889.4,1763.8
									c-0.1,0-0.1,0-0.2,0c0,0,0,0-0.1,0c-0.2,0-0.4,0.1-0.5,0.2c-0.2,0.1-0.3,0.3-0.4,0.4c-0.1,0.2-0.2,0.4-0.2,0.6s0,0.4,0,0.7
									c0,0.2,0.1,0.4,0.2,0.6c0.1,0.2,0.2,0.3,0.3,0.4s0.3,0.2,0.4,0.3c0.2,0.1,0.3,0.1,0.5,0.1c0,0,0,0,0.1,0c0,0,0,0,0.1,0
									s0,0,0.1,0c0,0,0,0,0.1,0c0.2,0,0.4-0.1,0.5-0.2c0.2-0.1,0.3-0.3,0.4-0.4c0.1-0.2,0.2-0.4,0.2-0.6s0.1-0.4,0-0.7
									c0-0.2-0.1-0.4-0.2-0.6c-0.1-0.2-0.2-0.3-0.3-0.4s-0.3-0.2-0.4-0.3C889.7,1763.8,889.5,1763.8,889.4,1763.8"/>
							</g>
						</g>
					</g>
				</g>
			</g>
		</g>
	</g>
</g>
<g>
	<path class="st2" d="M900.8,1774.9c0,0,44.8-55.8,5.8-69.3C873.4,1694,864.3,1761.3,900.8,1774.9z"/>
	<path class="st2" d="M840.5,1772.5c-1.9-37.2,39-21.3,60,1.7C904.3,1778.3,842.3,1808.1,840.5,1772.5z"/>
	<path d="M906.7,1705.5c39,13.5-5.8,69.3-5.8,69.3s30.2-53.8,3.3-61.3c-27-7.5-26.6,51-3.3,61.3
		C864.3,1761.3,873.4,1694,906.7,1705.5z"/>
	<path d="M900.5,1774.3c0.2,0.2,0.2,0.5,0.1,0.8c-6.4-4.3-51.2-33.1-53.9-5.6c-2.9,29.7,43.1,11.2,52.9,6.9
		c-8.1,7.6-57.5,27.8-59.1-3.8C838.7,1735.4,879.5,1751.2,900.5,1774.3z"/>
	<path d="M900.6,1769.9c0,0,17-42.1,7.8-47.6C899.1,1716.7,900.6,1769.9,900.6,1769.9z"/>
	<path d="M899.4,1769.6c0,0-6.4-26.1-11.9-24.5S899.4,1769.6,899.4,1769.6z"/>
	<path d="M898.1,1756.6c0,0,3.2-34.6-4.9-37C885.2,1717.2,898.1,1756.6,898.1,1756.6z"/>
	<path d="M897.3,1775.3c0,0-26.7-15.8-29.2-10C865.6,1771.2,897.3,1775.3,897.3,1775.3z"/>
	<path d="M895.2,1776.7c0,0-39.4-7.4-44,1.6C846.5,1787.4,895.2,1776.7,895.2,1776.7z"/>
	<path d="M869.2,1770.9c0,0-13.1-9.5-14.9-4.7C851.3,1773.9,869.2,1770.9,869.2,1770.9z"/>
	<path class="st3" d="M905.5,1727.4c-1.3,0.8-1.7,2.6-0.9,3.9s2.6,1.7,3.9,0.9c1.3-0.9,1.7-2.6,0.9-3.9
		C908.5,1727,906.8,1726.6,905.5,1727.4z"/>
	<path class="st3" d="M856.3,1776.2c-1.1,0.7-1.4,2.1-0.7,3.2s2.1,1.4,3.2,0.7c1.1-0.7,1.4-2.1,0.7-3.2
		C858.8,1775.9,857.4,1775.6,856.3,1776.2z"/>
	<path class="st3" d="M892.9,1724c-1,0.6-1.3,2-0.7,3s2,1.3,3,0.7c1-0.6,1.3-2,0.7-3C895.2,1723.6,893.9,1723.3,892.9,1724z"/>
	
		<ellipse transform="matrix(0.8433 -0.5375 0.5375 0.8433 -815.8586 738.0297)" class="st3" cx="857.6" cy="1768" rx="1.9" ry="1.9"/>
	<ellipse transform="matrix(0.8436 -0.537 0.537 0.8436 -812.2682 745.2545)" class="st3" cx="873.2" cy="1767" rx="1.9" ry="1.9"/>
	<path class="st3" d="M888.5,1747.2c-0.8,0.5-1,1.5-0.5,2.3s1.5,1,2.3,0.5s1-1.5,0.5-2.3C890.3,1746.9,889.3,1746.7,888.5,1747.2z"
		/>
</g>
<linearGradient id="SVGID_3_" gradientUnits="userSpaceOnUse" x1="49.6" y1="259.7222" x2="253.5" y2="259.7222" gradientTransform="matrix(1 0 0 -1 0 366)">
	<stop  offset="0.5577" style="stop-color:#F26536"/>
	<stop  offset="1" style="stop-color:#60060F"/>
</linearGradient>
<path class="st4" d="M69.8,79c0,0,1.8-12.6,12.2-12.9c6.6-0.2,62.1,0,62.1,0V55.8H135v-5.4h31.5v5.7H157v10.1h64
	c0,0,10.1,0.8,11.7,12.9h6.5v4.4H235V87h18.5v4.1h-19.8l-4.9,54.9c0,0-2.1,13.5-10.1,15c-5.7,2.6-126.5,0-126.5,0
	s-17.4,1.9-19.5-10.6c-3-14.6-4.7-59.5-4.7-59.5H49.6v-4.6h17.7v-3.1h-2.9V79H69.8z"/>
<linearGradient id="SVGID_4_" gradientUnits="userSpaceOnUse" x1="276.6" y1="247.3" x2="480.4" y2="247.3" gradientTransform="matrix(1 0 0 -1 0 366)">
	<stop  offset="0" style="stop-color:#6E0E0F"/>
	<stop  offset="0.4691" style="stop-color:#F26536"/>
</linearGradient>
<path class="st5" d="M296.7,99.3c0,0,1.8-9,12.2-9.2c6.6-0.1,62.1,0,62.1,0v-7.3h-9v-3.9h31.5v4h-9.6v7.2h64c0,0,10.1,0.6,11.7,9.2
	h6.5v3.1h-4.2v2.6h18.5v2.9h-19.8c0,0-4.9,37.5-4.9,39.1s-2.1,9.6-10.1,10.7c-5.7,1.8-126.5,0-126.5,0s-17.4,1.4-19.5-7.5
	c-2.8-10.4-4.5-42.4-4.5-42.4h-18.5v-3.3h17.7v-2.2h-2.9v-2.9L296.7,99.3L296.7,99.3z"/>
<rect x="804.3" y="1851.3" class="st6" width="387" height="49.6"/>
<text transform="matrix(1 0 0 1 831.9321 1869.3384)" style="font-family:'Quicksand-Regular'; font-size:25.7719px;">ARTÍCULOS DE ALUMINIO</text>
<text transform="matrix(1 0 0 1 831.9321 1869.3384)" class="st7" style="font-family:'Quicksand-Regular'; font-size:25.7719px;">ARTÍCULOS DE ALUMINIO</text>
<path d="M842.6,1772.2l15.8,60.1h-7.7l-9.6-36.7l-16.4,38.9l-16.5-39.3l-9.7,37.1h-7.7l15.8-60.1l18.1,43L842.6,1772.2z"/>
<path d="M864.9,1803.1c0-8.3,3.1-15.5,9.4-21.4c6.3-5.9,13.8-8.9,22.7-8.9c8.6,0,16,3,22.2,9s9.3,13.1,9.3,21.3
	c0,8.7-3.1,16.1-9.2,22.1c-6.1,6-13.7,9-22.6,9c-8.8,0-16.3-3-22.5-9.1C868,1819.1,864.9,1811.7,864.9,1803.1z M920.2,1803.4
	c0-6.4-2.3-11.7-6.9-16.1c-4.6-4.4-10.2-6.5-16.9-6.5c-6.4,0-11.8,2.2-16.4,6.7c-4.5,4.4-6.8,9.8-6.8,16c0,6.3,2.3,11.6,7,16
	s10.4,6.5,17.1,6.5c6.2,0,11.6-2.2,16.1-6.7C917.9,1814.8,920.2,1809.6,920.2,1803.4z"/>
<path d="M939.2,1772.2l42.7,43.9v-41.6h7.9v60.4l-42.7-43.7v41h-7.9V1772.2z"/>
<path d="M1024,1772.3l27.3,59.9h-8.3l-6.7-14.8h-24.5l-6.6,14.8H997L1024,1772.3z M1023.9,1790.3l-9.2,20.6h18.6L1023.9,1790.3z"/>
<path d="M1060.5,1774.6h12.5c6.2,0,11.3,1.5,15.2,4.6c3.9,3.1,5.9,7.1,5.9,11.9c0,3.9-1.3,7.3-3.8,10.2c-2.5,3-6.5,5-11.8,6.2
	l16.8,24.7h-9l-16-23.7h-1.8v23.7h-7.9L1060.5,1774.6L1060.5,1774.6z M1068.4,1781.5v20.1c11.6,0.2,17.4-3.1,17.4-10.1
	c0-2.4-0.7-4.4-2-6c-1.4-1.6-3.2-2.6-5.4-3.2C1076.1,1781.8,1072.8,1781.5,1068.4,1781.5z"/>
<path d="M1153.2,1776.5v8.9c-6.2-3.1-11.9-4.6-17.2-4.6c-6.7,0-12.4,2.2-16.9,6.5c-4.6,4.3-6.9,9.6-6.9,16s2.3,11.8,7,16.1
	c4.7,4.3,10.6,6.4,17.6,6.4c5.1,0,10.6-1.6,16.3-4.8v9c-5.2,2.8-10.9,4.2-17,4.2c-8.9,0-16.6-3-22.9-9.1s-9.5-13.3-9.5-21.9
	c0-8.4,3.1-15.6,9.4-21.5c6.2-6,13.8-9,22.5-9C1141.3,1772.7,1147.1,1774,1153.2,1776.5z"/>
<path d="M1184.9,1772.3l27.2,59.9h-8.3l-6.7-14.8h-24.5l-6.6,14.8h-8.2L1184.9,1772.3z M1184.9,1790.3l-9.2,20.6h18.6L1184.9,1790.3
	z"/>
<rect x="442.4" y="1458.8" class="st6" width="513.7" height="66"/>
<text transform="matrix(1 0 0 1 522.5601 1514.6255)" style="font-family:'MinionPro-Bold'; font-size:78.6678px;">MONARCA</text>
<path class="st8" d="M710.9,1339.4c0,1.6-10.2,2.9-22.7,2.9s-22.7-1.3-22.7-2.9l0,0c0,0,0.3-7.3,0-10.5c-0.4-3.7-2.1-10.8-2.9-12
	l1.4-1.1c0,0,3.9,4.8,5.4,6.9l0.2,0.2c0.7,1,1.4,1.9,2,2.4c0.6,0.6,0.9,0.6,0.9,0.6c0.6-0.2,5.1-4.2,4.6-12.7l1.6-0.5l1.9,3.3
	c0.3,0.5,0.6,1,0.8,1.5c1.8,3.1,4.2,7.4,7,7.6c2.3,0.2,4.9-4.3,7.2-8.2c0.8-1.4,1.6-2.8,2.4-4l1.4-2.1l0.2,2.5
	c0.2,2.8,1.4,10.3,3.8,12.3c0.4,0.3,0.7,0.4,1.1,0.4h0.1c0.2-0.1,1.1-0.7,2.8-3.3c2.7-4.2,4.9-6.7,5-6.8l1.5,0.9
	c0,0.1-3.1,9.1-3,15.3V1339.4L710.9,1339.4z"/>
<path class="st9" d="M667.3,1338.2c0.2,0,0.3-0.1,0.5-0.1c3.7-1,11.4-1.6,20.3-1.6c9.6,0,17.7,0.7,21,1.8l-0.1-5.7
	c0,0-5.3-1.4-18.9-1.7c-13.6-0.3-22.9,1.7-22.9,1.7c0,2.8-0.2,5.5-0.2,5.6"/>
<ellipse class="st9" cx="688.2" cy="1339.4" rx="20.3" ry="1.6"/>
<path class="st9" d="M667.2,1331c0,0,8.7-1.5,20.4-1.6s21.4,1.7,21.4,1.7l0,0c0.1-3.5,1-7.4,1.8-10.5c-0.6,0.9-1.3,1.9-2.1,3
	c-2,3-3.4,4.3-4.4,4.1c-0.8,0-1.5-0.2-2.2-0.8c-2.4-2-3.6-7.6-4.1-11c-0.4,0.6-0.7,1.2-1.1,1.8c-2.7,4.7-5.3,9.1-8.6,9.1
	c-0.1,0-0.2,0-0.3,0c-3.7-0.3-6.4-5.1-8.4-8.5c-0.3-0.5-0.6-1-0.8-1.5l-0.3-0.5c-0.3,3.2-1.2,5.6-2.1,7.2c-1.2,2.3-2.8,3.8-3.7,4.1
	c-1.7,0.6-3.1-1.3-4.8-3.6l-0.2-0.2c-0.5-0.7-1.3-1.8-2.2-2.8c0.7,2.9,1.3,6.1,1.5,7.8C667.1,1329.3,667.2,1330.2,667.2,1331z"/>
<rect x="465.1" y="1534" class="st6" width="477.7" height="61.3"/>
<text transform="matrix(1 0 0 1 499.2256 1556.314)" style="font-family:'Quicksand-Regular'; font-size:31.8127px;">ARTÍCULOS DE ALUMINIO</text>
<text transform="matrix(1 0 0 1 499.2256 1556.314)" class="st10" style="font-family:'Quicksand-Regular'; font-size:31.8127px;">ARTÍCULOS DE ALUMINIO</text>
<g>
	<path class="st3" d="M62.5,304.7v-4c8.6-0.9,9.3-1.7,9.2-12.2l-0.2-44.1h-0.6l-25.3,59.5h-3.2L19,245.5h-0.5l-1.4,29.9
		c-0.5,9.5-0.5,14.9,0,18.4c0.5,5.2,2.7,6.2,10.3,6.9v4H0v-4c6.4-0.6,8.6-2.6,9.3-6.6c0.7-3.7,1.6-9.6,2.4-21.6l1.8-22.6
		c0.9-13.1,0.1-14.7-9.7-15.6v-4h23.7l22.1,50.1L72,230.3h23v4c-9.2,0.9-9.6,1.8-9.4,11.3l1,42.8c0.2,10.5,0.8,11.3,9.7,12.2v4H62.5
		V304.7z"/>
	<path class="st3" d="M181.9,266.7c0,24.7-17.7,39.7-39.3,39.7c-22.9,0-38.8-16.8-38.8-38.8c0-19.7,14-39,40.2-39
		C164.9,228.6,181.9,244,181.9,266.7z M121.4,265.5c0,19.6,8.7,36.2,23.4,36.2c10.9,0,19.7-10.6,19.7-31.7
		c0-22.8-9.3-36.5-22.4-36.5C130.4,233.4,121.4,245.7,121.4,265.5z"/>
	<path class="st3" d="M268.1,234.3c-6.2,0.3-8.6,1.8-9.2,7.1c-0.3,3.5-1,8.9-1,19v45.4h-5.5l-47.6-57h-0.3v25.8
		c0,10.1,0.6,15.1,0.9,18.5c0.6,5,2.5,7.2,11,7.6v4h-28v-4c6.4-0.5,9-2.3,9.5-7.2c0.5-3.8,1.1-8.8,1.1-18.9v-23.9
		c0-7.4-0.2-9.6-2.4-12.3c-2.1-2.7-4.7-3.7-9.5-4.1v-4h21.2l43.7,50.3h0.5v-20.1c0-10.1-0.7-15.5-0.9-18.8c-0.6-4.9-3-6.9-11.3-7.3
		v-4h27.9L268.1,234.3L268.1,234.3z"/>
	<path class="st3" d="M310.6,304.7v-4c6.8-1,7.3-2.4,5.5-7.4c-1.1-3.4-2.9-8.2-4.6-12.9h-22c-1.3,3.5-2.7,7.7-4.1,12.2
		c-1.6,5.5-1.4,7.1,7,8.1v4h-25.6l0.1-4c7.6-0.9,8.9-2.2,12.7-11.8l23.5-58.8l5.8-1.5c7.3,20,14.4,40,21.9,59.6
		c3.9,10.1,5.4,11.6,12.6,12.5v4L310.6,304.7L310.6,304.7z M300.9,249.5h-0.3c-3.2,8.4-6.1,16.6-9,24.7h17.9L300.9,249.5z"/>
	<path class="st3" d="M420.4,305.8c-0.7,0-2.1-0.1-3.4-0.1c-14.4-0.7-18.9-3.9-23.5-11.1c-3-4.7-6.1-10.9-9.4-16.8
		c-1.8-3.5-3.9-4.9-7.6-5h-2.2v16.7c0,9.4,1.1,10.5,9.7,11.3v4h-34.6v-4c8.6-0.8,9.8-1.9,9.8-11.3v-44c0-9.2-1-10.3-9.4-11.1v-4H382
		c10,0,15.8,1.1,20.4,4.4c4.6,3,7.8,8.1,7.8,15.2c0,10.1-6.6,15.5-14.3,18.7c1.6,3.3,6,11,9.3,16.3c4.1,6.3,6.5,10,8.8,12.4
		c2.5,2.6,4.3,4,7,4.9L420.4,305.8z M377.3,268.2c4.8,0,8.7-0.8,11.2-3.1c3.9-3.2,5.5-7.8,5.5-13.6c0-12.1-7.1-16.6-13.5-16.6
		c-2.9,0-4.5,0.5-5.2,1.1c-0.8,0.7-1,1.8-1,4.2v27.9h3V268.2z"/>
	<path class="st3" d="M494.8,285.3c-1.5,5.5-4.5,14.2-6.4,18.2c-3,0.7-13.5,3-21.3,3c-30.5,0-43.2-19.8-43.2-38
		c0-23.5,18.1-39.8,45.5-39.8c9.3,0,17.7,2.4,20.8,3.1c1,6.3,1.8,11.6,2.6,18.8l-4.2,0.8c-3.8-13.6-12.6-17.6-21.4-17.6
		c-16.6,0-25.8,15.7-25.8,32.5c0,21.1,11.3,34.9,26.9,34.9c9.5,0,16.6-6.1,22.4-17.6L494.8,285.3z"/>
	<path class="st3" d="M542.5,304.7v-4c6.8-1,7.3-2.4,5.5-7.4c-1.1-3.4-2.9-8.2-4.6-12.9h-22c-1.3,3.5-2.7,7.7-4.1,12.2
		c-1.6,5.5-1.4,7.1,7,8.1v4h-25.6l0.1-4c7.6-0.9,8.9-2.2,12.7-11.8l23.5-58.8l5.8-1.5c7.3,20,14.4,40,21.9,59.6
		c3.9,10.1,5.4,11.6,12.6,12.5v4L542.5,304.7L542.5,304.7z M532.8,249.5h-0.3c-3.2,8.4-6.1,16.6-9,24.7h17.9L532.8,249.5z"/>
</g>
<g>
	<path class="st3" d="M25.3,357.8H10.5l-2.9,7.6c-0.2,0.5-0.6,0.7-1.1,0.7c-0.1,0-0.3,0-0.4,0c-0.6-0.2-0.9-0.9-0.6-1.5l11.3-30.1
		c0.2-0.4,0.6-0.7,1.1-0.7s1,0.3,1.1,0.7l11.3,30.1c0.2,0.6,0,1.2-0.6,1.5c-0.2,0-0.3,0-0.4,0c-0.4,0-0.9-0.3-1.1-0.7L25.3,357.8z
		 M11.3,355.5h13.1l-6.5-17.4L11.3,355.5z"/>
	<path class="st3" d="M53.5,358.9c0-2.4-1.2-3.8-2.6-4.9c-1.4-1-3.1-1.5-3.7-1.6c-0.1,0-0.2-0.1-0.2-0.1h-7.9v12.8
		c0,0.6-0.5,1.1-1.2,1.1c-0.6,0-1.1-0.5-1.1-1.1v-30.2c0-0.6,0.5-1.1,1-1.1h0.1H38h9c5.1,0,9.2,4.1,9.2,9.3c0,3.7-2.2,6.9-5.3,8.4
		c0.1,0.1,0.3,0.1,0.5,0.2c2.1,1.2,4.4,3.6,4.4,7.2c0,1.9,0.2,3.1,0.4,3.8c0.2,0.6,0.4,0.7,0.5,0.8c0.5,0,1.1,0.2,1.2,0.7
		c0.1,0.6-0.1,1.2-0.7,1.5c0,0-0.3,0-0.6,0h-0.1c-0.6,0-1.6-0.5-2.1-1.5C53.9,363.1,53.5,361.6,53.5,358.9z M47.1,336.1h-8v14h7.8
		h0.4c3.8-0.1,6.8-3.2,6.8-7C54.1,339.2,50.9,336.1,47.1,336.1z"/>
	<path class="st3" d="M73.8,336.1H64c-0.6,0-1.1-0.5-1.1-1.2c0-0.6,0.5-1.1,1.1-1.1h21.8c0.6,0,1.1,0.5,1.1,1.1s-0.5,1.2-1.1,1.2H76
		v29c0,0.6-0.5,1.1-1.1,1.1s-1.1-0.5-1.1-1.1V336.1z"/>
	<path class="st3" d="M94.5,329.1c0-0.2,0.1-0.4,0.2-0.5l2.9-4.3c0.4-0.6,0.7-0.8,1.3-0.8c0.9,0,1.9,0.6,1.9,1.1
		c0,0.3-0.2,0.6-0.5,0.8l-3.7,3.6c-0.6,0.5-0.9,0.6-1.5,0.6C94.7,329.5,94.5,329.3,94.5,329.1z M97.6,366.2c0.6,0,1.2-0.5,1.2-1.1
		v-30.2c0-0.6-0.5-1.1-1.2-1.1c-0.6,0-1.1,0.5-1.1,1.1v30.2C96.5,365.7,97,366.2,97.6,366.2z"/>
	<path class="st3" d="M123.5,333.3c4,0,7.6,1.4,10.5,3.6c0.5,0.4,0.6,1.2,0.2,1.6c-0.4,0.6-1.1,0.6-1.6,0.2
		c-2.5-1.9-5.6-3.1-9.1-3.1c-8.1,0-14.6,6.3-14.6,14.3c0,7.7,6.5,14.1,14.6,14.1c3.4,0,6.6-1.1,9-3.2c0.6-0.4,1.3-0.3,1.6,0.3
		c0.5,0.4,0.4,1.3-0.1,1.6c-2.8,2.2-6.5,3.5-10.5,3.5c-9.3,0-16.9-7.3-16.9-16.3C106.7,340.6,114.2,333.4,123.5,333.3z"/>
	<path class="st3" d="M143.9,334.9c0-0.6,0.5-1.1,1.1-1.1s1.2,0.5,1.2,1.1v18.2c0,6,4.9,10.8,10.8,10.8c6,0,10.9-4.9,10.9-10.8
		v-18.2c0-0.6,0.5-1.1,1.1-1.1s1.2,0.5,1.2,1.1v18.2c0,7.2-5.9,13.1-13.1,13.1c-7.2,0-13.1-5.9-13.1-13.1L143.9,334.9L143.9,334.9z"
		/>
	<path class="st3" d="M180.6,366.2L180.6,366.2c-0.7,0-1.2-0.5-1.2-1.1v-30.2c0-0.6,0.5-1.1,1.1-1.1s1.2,0.5,1.2,1.1v29h15.5
		c0.6,0,1.2,0.5,1.2,1.2c0,0.6-0.5,1.1-1.2,1.1H180.6z"/>
	<path class="st3" d="M217.8,333.3c8.7,0,15.5,7.4,15.5,16.4c0,9.1-6.9,16.4-15.5,16.4c-8.8,0-15.6-7.4-15.7-16.4
		C202.2,340.7,209.1,333.3,217.8,333.3z M217.8,363.9c7.1,0,13.1-6.2,13.2-14.2c0-8-6.1-14.1-13.2-14.1c-7.4,0-13.4,6.1-13.4,14.1
		C204.4,357.7,210.4,363.9,217.8,363.9z"/>
	<path class="st3" d="M241.2,360.1c0.4-0.5,1-0.5,1.4-0.1c2.4,1.9,6.4,4.2,10.6,4.2c2.8,0,5.4-0.8,7.1-2.1c1.8-1.3,2.8-3,2.8-4.8
		c0-1.9-0.9-3.2-2.6-4.4c-1.8-1.2-4.4-2-7.5-2.6h0c-3-0.6-5.6-1.4-7.6-2.7c-2-1.3-3.3-3.2-3.3-5.6c0-2.5,1.3-4.6,3.4-6.1
		c2-1.5,4.8-2.4,7.8-2.4c4.3,0,7.5,2.1,10,3.7c0.5,0.3,0.6,0.9,0.3,1.4c-0.3,0.5-0.9,0.6-1.4,0.3c-2.5-1.7-5.3-3.4-8.9-3.4
		c-2.6,0-5,0.8-6.6,1.9c-1.6,1.2-2.5,2.8-2.5,4.4s0.8,2.8,2.4,3.9c1.6,1.1,4,1.9,6.9,2.5h0.1c3.2,0.6,6.1,1.5,8.2,3
		c2.1,1.4,3.6,3.5,3.6,6.1s-1.5,4.9-3.7,6.5s-5.1,2.5-8.3,2.5c-5,0-9.3-2.5-11.9-4.7C240.9,361.2,240.9,360.5,241.2,360.1z"/>
	<path class="st3" d="M288.7,366.2h-0.2c-0.6,0-1-0.5-1-1.1v-30.2c0-0.6,0.5-1.1,1.1-1.1h0.1h5.9c8.9,0,16.2,7.3,16.2,16.3
		c0,8.9-7.3,16.2-16.2,16.2L288.7,366.2L288.7,366.2z M294.7,363.9c7.7,0,13.9-6.2,13.9-13.9c0-7.7-6.3-13.9-13.9-14h-4.9v27.9
		H294.7z"/>
	<path class="st3" d="M318.4,334.9c0-0.6,0.5-1.1,1.1-1.1h0.1h16.6c0.6,0,1.1,0.5,1.1,1.1s-0.5,1.2-1.1,1.2h-15.5v12.8h13.6
		c0.6,0,1.1,0.5,1.1,1.2c0,0.6-0.5,1.1-1.1,1.1h-13.6V364h15.5c0.6,0,1.1,0.5,1.1,1.2c0,0.6-0.5,1.1-1.1,1.1h-16.5h-0.1h-0.1
		c-0.6,0-1-0.5-1-1.1v-30.3H318.4z"/>
	<path class="st3" d="M377.5,357.8h-14.8l-2.9,7.6c-0.2,0.5-0.6,0.7-1.1,0.7c-0.1,0-0.3,0-0.4,0c-0.6-0.2-0.9-0.9-0.6-1.5l11.3-30.1
		c0.2-0.4,0.6-0.7,1.1-0.7s1,0.3,1.1,0.7l11.3,30.1c0.2,0.6,0,1.2-0.6,1.5c-0.2,0-0.3,0-0.4,0c-0.4,0-0.9-0.3-1.1-0.7L377.5,357.8z
		 M363.6,355.5h13.1l-6.5-17.4L363.6,355.5z"/>
	<path class="st3" d="M390.9,366.2L390.9,366.2c-0.7,0-1.2-0.5-1.2-1.1v-30.2c0-0.6,0.5-1.1,1.1-1.1s1.2,0.5,1.2,1.1v29h15.5
		c0.6,0,1.2,0.5,1.2,1.2c0,0.6-0.5,1.1-1.2,1.1H390.9z"/>
	<path class="st3" d="M414.9,334.9c0-0.6,0.5-1.1,1.1-1.1s1.2,0.5,1.2,1.1v18.2c0,6,4.9,10.8,10.8,10.8c6,0,10.9-4.9,10.9-10.8
		v-18.2c0-0.6,0.5-1.1,1.1-1.1s1.2,0.5,1.2,1.1v18.2c0,7.2-5.9,13.1-13.2,13.1c-7.2,0-13.1-5.9-13.1-13.1V334.9z"/>
	<path class="st3" d="M475.2,338.4l-10.4,14.4c-0.2,0.4-0.6,0.5-0.9,0.5h-0.1c-0.4,0-0.7-0.1-1-0.5l-10.4-14.4V365
		c0,0.6-0.5,1.1-1.1,1.1s-1.2-0.5-1.2-1.1v-30c0-0.4,0.2-0.7,0.5-0.9c0,0,0,0,0.1-0.1c0.5-0.3,1.2-0.2,1.6,0.3l11.5,16l11.5-16
		c0.3-0.5,1.1-0.6,1.6-0.3c0.1,0.1,0.2,0.2,0.3,0.4c0.1,0.2,0.2,0.4,0.2,0.6v30c0,0.6-0.5,1.1-1.1,1.1s-1.1-0.5-1.1-1.1V338.4z"/>
	<path class="st3" d="M489.6,334.9c0-0.6,0.5-1.1,1.1-1.1s1.2,0.5,1.2,1.1v30.2c0,0.6-0.5,1.1-1.2,1.1c-0.6,0-1.1-0.5-1.1-1.1V334.9
		z"/>
	<path class="st3" d="M505.8,338.6v26.5c0,0.6-0.5,1.1-1.1,1.1s-1.1-0.5-1.1-1.1v-29.7c-0.1-0.5,0-0.9,0.4-1.3
		c0.5-0.3,1.3-0.2,1.6,0.3l19.6,27.2v-26.4c0-0.6,0.5-1.1,1.1-1.1s1.2,0.5,1.2,1.1v29.9c0,0.6-0.5,1.1-1.2,1.1
		c-0.4,0-0.6-0.1-0.9-0.4c0,0-0.1-0.1-0.2-0.2L505.8,338.6z"/>
	<path class="st3" d="M537.8,334.9c0-0.6,0.5-1.1,1.1-1.1s1.2,0.5,1.2,1.1v30.2c0,0.6-0.5,1.1-1.2,1.1c-0.6,0-1.1-0.5-1.1-1.1V334.9
		z"/>
	<path class="st3" d="M565.8,333.3c8.7,0,15.5,7.4,15.5,16.4c0,9.1-6.9,16.4-15.5,16.4c-8.8,0-15.6-7.4-15.7-16.4
		C550.2,340.7,557.1,333.3,565.8,333.3z M565.8,363.9c7.1,0,13.2-6.2,13.2-14.2s-6.1-14.1-13.2-14.1c-7.4,0-13.4,6.1-13.4,14.1
		C552.4,357.7,558.4,363.9,565.8,363.9z"/>
</g>
<path class="st11" d="M697.5,1324.5"/>
<path class="st11" d="M636.7,1338.7"/>
<path class="st12" d="M688.1,1365.1c-5.7-0.3-6.4,53-0.4,54.3C693.6,1420.7,693.6,1367.9,688.1,1365.1z"/>
<ellipse transform="matrix(0.1566 -0.9877 0.9877 0.1566 192.8715 666.5733)" class="st3" cx="486.7" cy="220.4" rx="4.1" ry="3.4"/>
<path class="st13" d="M194.8,36.3c0,0,1.8-21,12.2-21.5c6.6-0.3,62.1,0,62.1,0V7H260v-7.1h31.5v7.5h-9.6v7.3h64
	c0,0,10.1,1.3,11.7,21.5h6.5v7.3h-4.2v6h18.5v6.9h-19.8l-4.9,91.5c0,0-2.1,22.5-10.1,25c-5.7,4.3-126.5,0-126.5,0
	s-17.4,3.2-19.5-17.7C194.7,130.9,193,56,193,56h-18.5v-7.7h17.7v-5.2h-2.9v-6.9h5.5V36.3z"/>
<path class="st3" d="M682.8,1374.7"/>
<g>
	<path class="st3" d="M696.1,1374.7"/>
	<path d="M696.1,1374.7c0,0,10.7-35,56.1-43c0,0,24.2-0.9,10,27.2c-4.5,7-3.8,14.4-3.8,14.4s0.6,18.2-16.6,18.5
		c0,0,16.7,8.4,3.4,29.5c-13.3,21-24.4,19.4-33.3,10.1c-9-9.3-16.9-21.7-17.9-26c-0.1-0.5-3.8-6.9-3.1-11.1
		c0.6-3.8-1.2-7.7,0.2-12.2C691.8,1379.8,693.2,1377.4,696.1,1374.7z"/>
	<path class="st9" d="M698.9,1382.2c0,0,4.9-4.4,10.9-6.9s34.2-3.5,39.8-2.2c4.6,0.7,5.5,2.1,5.5,2.1s-1.8,13.2-18.5,10.5
		C736.5,1385.7,705.2,1379.4,698.9,1382.2z"/>
	<path class="st9" d="M698.9,1379.2c0,0,5.8-25.9,40.5-34.5c14.4-3.6,16.8,5.9,17.7,15.6c0,0,0.2,5.2-0.3,6.7
		c-0.5,1.6-21.3,3.6-28.8,3.6C720.2,1370.6,702,1372,698.9,1379.2z"/>
	<path class="st9" d="M697.7,1384.4c0,0,13.1-1.7,31.1,4.9c0,0-8.7,0.5-9.3,1.7s-0.3,2.2,0.2,4.5s1.5,3.1,2.6,3.8
		c1.1,0.7,4.2,1.6,4.1,2.9c-0.1,1.2,0.4,2.8-4.1,1.8s-12.3-6.6-14.5-8.3c-2.2-1.7-7.8-6.4-10.9-6.8
		C696.8,1388.9,696.5,1386.6,697.7,1384.4z"/>
	<path class="st9" d="M722.2,1392.7c0,0-0.2,2.3,0.7,3.5c0.8,1.1,5.6,3.2,5.7,6c0.1,2.8-1.7,8.3-11.6,2.5c0,0,12.2,21.7,13.6,22.9
		c0,0,10.5-4.6,15.3-16.6s-7.7-19.4-11.6-19.9C730.4,1390.5,723.6,1391.7,722.2,1392.7z"/>
	<path class="st9" d="M697.6,1390.5l-1.8,4.2l-0.1,4.4c0,0,9.8,28.8,22.7,30.5c0,0,6.1,0.5,8.9-1.1l0,0c0,0-5.6-12.8-9.6-18.8
		s-6.6-8.4-11.5-12.1C701.4,1393.8,697.6,1390.5,697.6,1390.5z"/>
	<path class="st3" d="M721.9,1433c0.7,0.7,0.9,1.8,0.3,2.5c-0.6,0.6-1.7,0.5-2.5-0.2s-0.9-1.8-0.3-2.5
		C720,1432.1,721.2,1432.2,721.9,1433z"/>
	<path class="st3" d="M729.3,1430.8c1.3,0.3,2.2,1.4,1.9,2.5c-0.2,1.1-1.5,1.7-2.8,1.4c-1.3-0.3-2.2-1.4-1.9-2.5
		C726.7,1431.1,728,1430.4,729.3,1430.8z"/>
	<path class="st3" d="M735.4,1426.7c1-0.8,2.2-0.8,2.7,0s0.1,2.1-0.9,3c-1,0.8-2.2,0.8-2.7,0C734,1428.9,734.4,1427.6,735.4,1426.7z
		"/>
	
		<ellipse transform="matrix(0.4008 -0.9162 0.9162 0.4008 -859.5652 1531.6012)" class="st3" cx="741.1" cy="1422.9" rx="1.2" ry="0.9"/>
	
		<ellipse transform="matrix(0.3994 -0.9168 0.9168 0.3994 -851.4488 1534.5304)" class="st3" cx="745.4" cy="1417.1" rx="1.5" ry="0.9"/>
	
		<ellipse transform="matrix(0.2292 -0.9734 0.9734 0.2292 -734.9162 1752.9667)" class="st3" cx="739.4" cy="1340.5" rx="1.9" ry="2.3"/>
	
		<ellipse transform="matrix(0.2295 -0.9733 0.9733 0.2295 -727.0651 1758.368)" class="st3" cx="747.1" cy="1338.4" rx="1.7" ry="2.4"/>
	
		<ellipse transform="matrix(0.2287 -0.9735 0.9735 0.2287 -718.9256 1766.0781)" class="st3" cx="755.1" cy="1336.7" rx="1.9" ry="2.7"/>
	<path class="st3" d="M762.4,1338.7c1,0.2,1.6,1.1,1.4,1.9c-0.2,0.8-1.1,1.3-2.1,1c-1-0.2-1.6-1.1-1.4-1.9
		C760.5,1338.9,761.5,1338.5,762.4,1338.7z"/>
	<path class="st3" d="M756.3,1340.9c2.2,0.5,3.7,2,3.4,3.3s-2.3,2-4.5,1.5s-3.7-2-3.4-3.4C752.2,1341.1,754.2,1340.4,756.3,1340.9z"
		/>
	<path class="st3" d="M757.2,1349c0.8-0.9,2-1.2,2.6-0.7c0.7,0.6,0.6,1.8-0.2,2.7c-0.8,0.9-2,1.2-2.6,0.7S756.5,1350,757.2,1349z"/>
	
		<ellipse transform="matrix(0.1285 -0.9917 0.9917 0.1285 -681.1423 1935.9323)" class="st3" cx="760.9" cy="1355.5" rx="1.4" ry="1.2"/>
	
		<ellipse transform="matrix(0.2373 -0.9714 0.9714 0.2373 -729.1867 1771.45)" class="st3" cx="763.5" cy="1350.1" rx="1.3" ry="0.8"/>
	<path class="st3" d="M764,1344.5c0.2-0.8,0.8-1.3,1.3-1.1c0.5,0.1,0.7,0.9,0.5,1.6c-0.2,0.8-0.8,1.3-1.3,1.1
		C764,1346,763.8,1345.2,764,1344.5z"/>
</g>
<g>
	<path class="st3" d="M681.7,1374.7"/>
	<path d="M681.7,1374.7c0,0-10.7-35-56.1-43c0,0-24.2-0.9-10,27.2c4.5,7,3.8,14.4,3.8,14.4s-0.6,18.2,16.6,18.5
		c0,0-16.7,8.4-3.4,29.5c13.3,21,24.4,19.4,33.3,10.1c9-9.3,16.9-21.7,17.9-26c0.1-0.5,3.8-6.9,3.1-11.1c-0.6-3.8,1.2-7.7-0.2-12.2
		C686,1379.8,684.6,1377.4,681.7,1374.7z"/>
	<path class="st9" d="M679,1382.2c0,0-4.9-4.4-10.9-6.9s-34.2-3.5-39.8-2.2c-4.6,0.7-5.5,2.1-5.5,2.1s1.8,13.2,18.5,10.5
		C641.3,1385.7,672.6,1379.4,679,1382.2z"/>
	<path class="st9" d="M678.9,1379.2c0,0-5.8-25.9-40.5-34.5c-14.4-3.6-16.8,5.9-17.7,15.6c0,0-0.2,5.2,0.3,6.7
		c0.5,1.6,21.3,3.6,28.8,3.6C657.6,1370.6,675.8,1372,678.9,1379.2z"/>
	<path class="st9" d="M680.1,1384.4c0,0-13.1-1.7-31.1,4.9c0,0,8.7,0.5,9.3,1.7c0.7,1.2,0.3,2.2-0.2,4.5s-1.5,3.1-2.6,3.8
		c-1.1,0.7-4.2,1.6-4.1,2.9c0.1,1.2-0.4,2.8,4.1,1.8c4.6-1,12.3-6.6,14.5-8.3c2.2-1.7,7.8-6.4,10.9-6.8
		C681,1388.9,681.3,1386.6,680.1,1384.4z"/>
	<path class="st9" d="M655.6,1392.7c0,0,0.2,2.3-0.7,3.5c-0.8,1.1-5.6,3.2-5.7,6c-0.1,2.8,1.7,8.3,11.6,2.5c0,0-12.2,21.7-13.6,22.9
		c0,0-10.5-4.6-15.3-16.6s7.7-19.4,11.6-19.9C647.4,1390.5,654.2,1391.7,655.6,1392.7z"/>
	<path class="st9" d="M680.3,1390.5l1.8,4.2l0.1,4.4c0,0-9.8,28.8-22.7,30.5c0,0-6.1,0.5-8.9-1.1l0,0c0,0,5.6-12.8,9.6-18.8
		s6.6-8.4,11.5-12.1C676.4,1393.8,680.3,1390.5,680.3,1390.5z"/>
	<path class="st3" d="M655.9,1433c-0.7,0.7-0.9,1.8-0.3,2.5c0.6,0.6,1.7,0.5,2.5-0.2s0.9-1.8,0.3-2.5
		C657.8,1432.1,656.7,1432.2,655.9,1433z"/>
	<path class="st3" d="M648.5,1430.8c-1.3,0.3-2.2,1.4-1.9,2.5c0.2,1.1,1.5,1.7,2.8,1.4c1.3-0.3,2.2-1.4,1.9-2.5
		C651.1,1431.1,649.9,1430.4,648.5,1430.8z"/>
	<path class="st3" d="M642.4,1426.7c-1-0.8-2.2-0.8-2.7,0s-0.1,2.1,0.9,3c1,0.8,2.2,0.8,2.7,0
		C643.8,1428.9,643.4,1427.6,642.4,1426.7z"/>
	
		<ellipse transform="matrix(0.9161 -0.401 0.401 0.9161 -517.1144 374.7743)" class="st3" cx="636.8" cy="1422.9" rx="0.9" ry="1.2"/>
	
		<ellipse transform="matrix(0.9168 -0.3994 0.3994 0.9168 -513.3823 370.5654)" class="st3" cx="632.5" cy="1417.2" rx="0.9" ry="1.5"/>
	
		<ellipse transform="matrix(0.9734 -0.2292 0.2292 0.9734 -290.2498 182.0045)" class="st3" cx="638.4" cy="1340.5" rx="2.3" ry="1.9"/>
	
		<ellipse transform="matrix(0.9733 -0.2295 0.2295 0.9733 -290.3341 180.4631)" class="st3" cx="630.7" cy="1338.4" rx="2.4" ry="1.7"/>
	
		<ellipse transform="matrix(0.9735 -0.2287 0.2287 0.9735 -289.23 177.8536)" class="st3" cx="622.8" cy="1336.8" rx="2.7" ry="1.9"/>
	<path class="st3" d="M615.4,1338.7c-1,0.2-1.6,1.1-1.4,1.9c0.2,0.8,1.1,1.3,2.1,1c1-0.2,1.6-1.1,1.4-1.9
		C617.3,1338.9,616.3,1338.5,615.4,1338.7z"/>
	<path class="st3" d="M621.5,1340.9c-2.2,0.5-3.7,2-3.4,3.3s2.3,2,4.5,1.5s3.7-2,3.4-3.4C625.7,1341.1,623.6,1340.4,621.5,1340.9z"
		/>
	<path class="st3" d="M620.6,1349c-0.8-0.9-2-1.2-2.6-0.7c-0.7,0.6-0.6,1.8,0.2,2.7c0.8,0.9,2,1.2,2.6,0.7
		C621.4,1351.2,621.4,1350,620.6,1349z"/>
	
		<ellipse transform="matrix(0.9917 -0.1285 0.1285 0.9917 -169.0847 90.5049)" class="st3" cx="616.8" cy="1355.6" rx="1.2" ry="1.4"/>
	
		<ellipse transform="matrix(0.9714 -0.2373 0.2373 0.9714 -302.8083 184.3122)" class="st3" cx="614.2" cy="1349.9" rx="0.8" ry="1.3"/>
	<path class="st3" d="M613.8,1344.5c-0.2-0.8-0.8-1.3-1.3-1.1c-0.5,0.1-0.7,0.9-0.5,1.6c0.2,0.8,0.8,1.3,1.3,1.1
		C613.8,1346,614,1345.2,613.8,1344.5z"/>
</g>
<g>
	<g>
		<path class="st3" d="M248.3,91.6"/>
		<path d="M248.3,91.6c0,0-2.7-53.3,55.4-86.6c0,0,32.7-13.3,27.2,32.2c-2.7,11.8,2,21.5,2,21.5s9.9,24.5-13.6,33.6
			c0,0,27,3.2,19.3,38.6s-23.7,38.6-40.6,30.3s-33.8-21.3-37.3-26.7c-0.3-0.6-8.6-7.6-9.8-13.6c-1.1-5.4-5.4-9.9-5.8-16.8
			C244.9,100.8,245.6,96.8,248.3,91.6z"/>
		<path class="st9" d="M255.8,100.6c0,0,4.5-8.5,11.5-14.9s45-21.7,53.3-22.8c6.7-1.4,8.5,0.1,8.5,0.1s4,19-20.1,23.6
			C309.1,86.6,263.1,93.5,255.8,100.6z"/>
		<path class="st9" d="M254.4,96.4c0,0-4.9-38.3,38.3-67.4c17.9-12,25.9-0.2,32,12.5c0,0,2.9,7,2.9,9.4c0.1,2.4-27.4,15.5-37.6,19.2
			C279.2,74.1,255,85.1,254.4,96.4z"/>
		<path class="st9" d="M255.2,104.1c0,0,17.1-8.9,45-8.7c0,0-11.6,5-12,6.9c-0.3,1.9,0.7,3.2,2.5,6.1s3.5,3.5,5.4,4s6.6,0.1,7.1,1.8
			c0.5,1.7,2,3.6-4.8,4.5c-6.8,0.8-20.1-2.9-24-4.1c-3.9-1.3-13.8-4.9-18.2-3.8C256.3,110.7,254.7,107.6,255.2,104.1z"/>
		<path class="st9" d="M292.9,103.3c0,0,0.9,3.3,2.6,4.4s9.2,1.6,10.7,5.4s1.8,12.2-14.6,9.2c0,0,27.4,23.6,30,24.6
			c0,0,12-11.5,12.7-30.3c0.7-18.7-20.2-22.7-25.7-21.6C303,96.2,294.3,101.3,292.9,103.3z"/>
		<path class="st9" d="M258.1,112.5l-0.3,6.6l2.1,6.1c0,0,27.6,34.6,46.2,30.4c0,0,8.6-2.3,11.6-6l0,0c0,0-14-14.7-22.4-21
			c-8.5-6.3-13.2-8.2-21.7-10.9C265.1,115.2,258.1,112.5,258.1,112.5z"/>
		<path class="st3" d="M312.4,158.5c1.4,0.6,2.1,2.1,1.6,3.2c-0.5,1.1-2.1,1.6-3.5,0.9c-1.4-0.6-2.1-2.1-1.6-3.2
			C309.5,158.3,311.1,157.9,312.4,158.5z"/>
		<path class="st3" d="M321.5,151.9c1.9-0.2,3.7,0.9,3.9,2.5c0.2,1.6-1.2,3.1-3.2,3.3s-3.7-0.9-3.9-2.5
			C318.1,153.6,319.5,152.1,321.5,151.9z"/>
		<path class="st3" d="M327.9,143.3c1-1.6,2.6-2.2,3.7-1.4c1.1,0.9,1.1,2.9,0.2,4.5c-1,1.6-2.6,2.3-3.7,1.4
			C327,147,326.9,144.9,327.9,143.3z"/>
		<path class="st3" d="M332.3,135.2c0.1-0.9,0.7-1.6,1.5-1.6s1.3,0.8,1.3,1.8c-0.1,0.9-0.7,1.6-1.5,1.6
			C332.8,136.9,332.3,136.2,332.3,135.2z"/>
		<path class="st3" d="M335.3,125.2c0.1-1.2,0.7-2.1,1.5-2.1s1.3,1.1,1.2,2.3c-0.1,1.2-0.8,2.1-1.5,2.1
			C335.8,127.4,335.3,126.4,335.3,125.2z"/>
		<path class="st3" d="M290.2,20.7c1.8-0.2,3.5,0.8,3.6,2.3c0.2,1.5-1.2,2.9-3,3.1s-3.4-0.8-3.6-2.3
			C287.1,22.3,288.4,20.9,290.2,20.7z"/>
		<path class="st3" d="M299.8,14.2c1.9-0.2,3.6,0.7,3.8,2.1c0.2,1.4-1.3,2.7-3.2,2.9c-1.9,0.2-3.6-0.7-3.8-2.1
			S297.8,14.4,299.8,14.2z"/>
		<path class="st3" d="M309.8,7.8c2.1-0.3,4,0.8,4.2,2.2c0.2,1.5-1.4,2.9-3.5,3.1c-2.1,0.2-4-0.8-4.2-2.3
			C306.1,9.4,307.7,8,309.8,7.8z"/>
		<path class="st3" d="M321.2,9.5c1.5-0.2,2.8,0.7,2.9,1.9s-0.9,2.3-2.4,2.5s-2.7-0.7-2.9-1.9C318.7,10.8,319.7,9.7,321.2,9.5z"/>
		<path class="st3" d="M313.9,15.5c3.2-0.4,6,0.9,6.3,2.9c0.2,2-2.2,3.9-5.4,4.3c-3.2,0.4-6-0.9-6.3-2.9
			C308.3,17.8,310.7,15.9,313.9,15.5z"/>
		<path class="st3" d="M319.2,26.2c0.6-1.7,2.1-2.7,3.3-2.2c1.2,0.4,1.7,2.1,1.1,3.8c-0.6,1.7-2.1,2.7-3.3,2.2
			C319.1,29.5,318.6,27.8,319.2,26.2z"/>
		<path class="st3" d="M325.7,33.7c-0.3-1.1,0.3-2.2,1.3-2.4c0.9-0.2,1.9,0.5,2.2,1.6c0.2,1.1-0.3,2.2-1.3,2.4
			C326.9,35.5,326,34.8,325.7,33.7z"/>
		<path class="st3" d="M327.2,24.5c-0.1-1,0.3-1.9,1-2s1.3,0.7,1.4,1.7s-0.3,1.9-1,2C327.9,26.3,327.3,25.5,327.2,24.5z"/>
		<path class="st3" d="M326.2,16.6c-0.1-1.1,0.4-2.1,1.2-2.2c0.7-0.1,1.4,0.8,1.5,2c0.1,1.1-0.4,2.1-1.2,2.2
			C326.9,18.7,326.2,17.8,326.2,16.6z"/>
	</g>
	<g>
		<path class="st3" d="M228.5,98.7"/>
		<path d="M228.5,98.7c0,0-32.1-42.6-98-31c0,0-33.6,10.8-0.2,42.2c9.6,7.3,12.3,17.8,12.3,17.8s8.2,25.1,32,17.1
			c0,0-18.7,19.8,9.9,42s43,14.5,50.6-2.7s12.3-38,11.6-44.4c-0.2-0.7,1.7-11.4-1.2-16.7c-2.7-4.9-2.2-11.1-6.3-16.6
			C237,103.6,233.9,101,228.5,98.7z"/>
		<path class="st9" d="M228.5,110.4c0,0-8.9-3.6-18.4-4s-48.5,12.2-55.5,16.7c-6,3.2-6.5,5.6-6.5,5.6s9.1,17.2,30.5,5.2
			C178.7,133.9,218.4,109.7,228.5,110.4z"/>
		<path class="st9" d="M227,106.4c0,0-20.8-32.5-72.6-27.2c-21.4,2.2-20,16.4-16.6,30.1c0,0,2.3,7.2,3.8,9.1s31-5.7,41.2-9.4
			C193.6,105.1,219.2,98,227,106.4z"/>
		<path class="st9" d="M231.2,112.8c0,0-18.8,4.1-40.1,22.2c0,0,12.1-3.6,13.6-2.3s1.5,2.9,2,6.3c0.5,3.3-0.5,5-1.6,6.5
			s-5,4.3-4.2,6c0.7,1.6,0.8,4.1,6.5,0.4c5.7-3.7,13.6-15.1,15.7-18.5c2.2-3.5,7.4-12.6,11.5-14.6
			C234.6,118.6,233.9,115.2,231.2,112.8z"/>
		<path class="st9" d="M201.8,136.3c0,0,1.4,3.1,0.8,5.1c-0.6,2-6,7.1-4.8,11c1.3,3.8,6.4,10.6,17.1-2.3c0,0-5.9,35.7-7.3,38.1
			c0,0-16.6-1.1-29.2-15.1c-12.5-14,0.9-30.4,6-33C189.5,137.4,199.4,135.7,201.8,136.3z"/>
		<path class="st9" d="M234.4,121.1l4.5,4.8l2.3,6c0,0,0.9,44.3-16,52.9c0,0-8.1,3.7-12.7,2.9l0,0c0,0,1.3-20.3,3.8-30.5
			s4.9-14.8,9.7-22.2C230.8,127.6,234.4,121.1,234.4,121.1z"/>
		<path class="st3" d="M222.2,191.3c-0.7,1.4-0.3,2.9,0.9,3.5c1.1,0.6,2.6-0.1,3.3-1.5s0.3-2.9-0.9-3.5S222.8,189.9,222.2,191.3z"/>
		<path class="st3" d="M211,191.9c-1.6,1.1-2.3,3-1.4,4.4c0.9,1.4,2.9,1.6,4.6,0.5c1.6-1.1,2.3-3,1.4-4.4S212.6,190.8,211,191.9z"/>
		<path class="st3" d="M200.6,189.4c-1.8-0.6-3.4-0.1-3.7,1.3c-0.3,1.3,1,2.9,2.8,3.6c1.8,0.6,3.4,0.1,3.7-1.3
			C203.6,191.7,202.3,190.1,200.6,189.4z"/>
		<path class="st3" d="M192,186.1c-0.6-0.7-1.6-0.8-2.2-0.3c-0.6,0.5-0.5,1.5,0.2,2.2c0.6,0.7,1.6,0.8,2.2,0.3
			C192.7,187.7,192.6,186.8,192,186.1z"/>
		<path class="st3" d="M183.2,180.3c-0.8-0.9-1.9-1.2-2.5-0.6c-0.6,0.5-0.3,1.7,0.5,2.5c0.8,0.9,1.9,1.2,2.5,0.6
			C184.3,182.3,184,181.2,183.2,180.3z"/>
		<path class="st3" d="M150.9,71.2c-1.5,1-2.1,2.8-1.3,4.1c0.8,1.3,2.7,1.5,4.3,0.5c1.5-1,2.1-2.8,1.3-4.1S152.5,70.2,150.9,71.2z"
			/>
		<ellipse transform="matrix(0.837 -0.5472 0.5472 0.837 -17.7556 89.1678)" class="st3" cx="140.8" cy="74.4" rx="3.5" ry="2.5"/>
		<path class="st3" d="M127.6,73.8c-1.8,1.2-2.6,3.1-1.8,4.4c0.8,1.3,2.9,1.3,4.7,0.2c1.8-1.2,2.6-3.1,1.8-4.4
			S129.4,72.6,127.6,73.8z"/>
		<path class="st3" d="M120,82.4c-1.2,0.8-1.7,2.3-1,3.3s2.2,1.2,3.4,0.4c1.2-0.8,1.7-2.3,1-3.3C122.7,81.8,121.2,81.6,120,82.4z"/>
		<path class="st3" d="M129.4,82.4c-2.7,1.8-4,4.6-2.9,6.3c1.1,1.7,4.2,1.6,6.9-0.2c2.7-1.8,4-4.6,2.9-6.2
			C135.2,80.5,132.1,80.6,129.4,82.4z"/>
		<path class="st3" d="M132.2,93.9c-1.5-0.9-3.3-0.7-4,0.4c-0.6,1.1,0.1,2.7,1.6,3.6s3.3,0.7,4-0.4
			C134.4,96.4,133.7,94.8,132.2,93.9z"/>
		<path class="st3" d="M132,103.9c-0.5-1-1.6-1.5-2.5-1c-0.8,0.4-1.1,1.6-0.6,2.6s1.6,1.5,2.5,1C132.2,106.1,132.5,104.9,132,103.9z
			"/>
		<path class="st3" d="M125,97.8c-0.6-0.9-1.5-1.2-2-0.9c-0.6,0.4-0.5,1.4,0,2.2c0.6,0.9,1.5,1.3,2,0.9
			C125.6,99.7,125.5,98.7,125,97.8z"/>
		<path class="st3" d="M120.7,91.1c-0.7-0.9-1.7-1.3-2.3-0.9c-0.6,0.4-0.6,1.5,0.1,2.5c0.7,0.9,1.7,1.3,2.3,0.9
			C121.4,93.1,121.4,92,120.7,91.1z"/>
	</g>
</g>
</svg>
